<svg width="173" height="158" viewBox="0 0 173 158" fill="none" xmlns="http://www.w3.org/2000/svg">
<path d="M85.4082 70.8444V62.8508L109.532 49.2417V59.8425L85.4082 70.8444Z" fill="#00B5DC"/>
<path d="M99.1891 85.6282L86.5254 72.7926L110.076 61.3323L119.703 69.5264L114.202 82.8204L99.1891 85.6282Z" fill="#00B5DC"/>
<path d="M111.48 59.8713V49.2705L131.306 58.8399L120.992 68.1228L111.48 59.8713Z" fill="#00B5DC"/>
<path d="M121.651 69.5552L131.335 61.3611V81.5026L117.039 82.1043L121.651 69.5552Z" fill="#3D70F5"/>
<path d="M114.202 106.515L130.705 83.3936L116.437 84.0525L108.672 100.641L114.202 106.515Z" fill="#3D70F5"/>
<path d="M114.202 84.6826L99.9914 87.0606L87.4424 106.515L106.381 100.641L114.202 84.6826Z" fill="#8CBF00"/>
<path d="M107.383 101.959L85.6084 108.864V122.903L112.798 107.575L107.383 101.959Z" fill="#8CBF00"/>
<path d="M83.9754 70.8444V62.8508L59.9087 49.2417V59.8425L83.9754 70.8444Z" fill="#EF0967"/>
<path d="M70.1943 85.6283L82.8293 72.8214L59.3356 61.3611L49.7949 69.5266L55.2386 82.7919L70.1943 85.6283Z" fill="#EF0967"/>
<path d="M57.9605 59.8713V49.2705L38.1914 58.8399L48.4771 68.1228L57.9605 59.8713Z" fill="#EF0967"/>
<path d="M47.8467 69.5552L38.1914 61.3611V81.5026L52.4309 82.1043L47.8467 69.5552Z" fill="#C24BED"/>
<path d="M55.2102 106.515L38.7646 83.3936L53.0041 84.0525L60.7398 100.641L55.2102 106.515Z" fill="#C24BED"/>
<path d="M55.21 84.6826L69.3635 87.0606L81.8839 106.515L63.003 100.641L55.21 84.6826Z" fill="#EC5F4E"/>
<path d="M84.749 73.2224L71.541 87.0608L84.749 108.005L97.8425 87.0608L84.749 73.2224Z" fill="#FFD800"/>
<path d="M62.0291 101.959L83.7178 108.864V122.903L56.6714 107.575L62.0291 101.959Z" fill="#EC5F4E"/>
<path d="M14.6407 51.4481C14.5834 51.6487 14.5548 51.8492 14.5548 52.0211C14.5548 52.193 14.6121 52.3363 14.6694 52.4222L14.6121 52.5941L11.5178 52.1644L11.5464 51.9638C12.1481 51.8492 12.6638 51.6487 13.0936 51.3908C13.5233 51.133 13.8671 50.7891 14.1536 50.3594C14.4402 49.9296 14.698 49.4139 14.8986 48.7836C15.0705 48.2679 15.0705 47.8381 14.9559 47.4943C14.8413 47.1505 14.5548 46.9213 14.1536 46.8067L11.2886 45.8899L10.4577 48.4684C10.3144 48.9268 10.2571 49.3566 10.3144 49.7291C10.3717 50.1015 10.5723 50.4453 10.9448 50.7318L10.8875 50.9037L8.02237 49.9869L8.07967 49.815C8.50943 49.7291 8.88189 49.5858 9.1684 49.328C9.45491 49.0987 9.68412 48.7263 9.82737 48.2679L10.6582 45.6893L6.81903 44.4573C6.41792 44.3141 6.04546 44.3714 5.7303 44.5719C5.41514 44.7725 5.15729 45.1449 5.01403 45.632C4.78482 46.3196 4.67022 46.9499 4.67022 47.5229C4.67022 48.096 4.75617 48.6403 4.95673 49.156C5.15729 49.6718 5.5011 50.1588 5.93086 50.6745L5.8449 50.8464L2.95117 49.0701L3.00847 48.8695C3.15173 48.7836 3.29498 48.6976 3.38093 48.583C3.46689 48.4684 3.55284 48.3252 3.61014 48.1246L5.75895 41.449L5.95951 41.5063C5.93086 41.8214 6.01681 42.1366 6.21737 42.3944C6.41792 42.6523 6.76173 42.8815 7.19149 43.0248L14.6407 45.4314C15.0705 45.5747 15.4429 45.6033 15.7867 45.4887C16.1306 45.3741 16.3598 45.2022 16.5317 44.9157L16.7322 44.973L14.6407 51.4481Z" fill="white"/>
<path d="M3.98258 53.6544C3.58147 53.5684 3.23766 53.5684 2.9798 53.6544C2.69329 53.7404 2.49274 53.9123 2.34948 54.1415L2.14893 54.0842L2.80789 51.1904L3.00845 51.2477C3.0371 51.5056 3.1517 51.7061 3.38091 51.9067C3.61012 52.1073 3.89663 52.2219 4.29774 52.3365L11.8329 54.0842C12.1767 54.1701 12.5205 54.1701 12.807 54.1128C13.1222 54.0555 13.3514 53.855 13.4947 53.5398L13.7239 53.5971C13.7239 53.8836 13.7239 54.1415 13.7525 54.428C13.7812 54.6858 13.8671 54.9437 13.9531 55.2015C14.039 55.4308 14.1536 55.66 14.2682 55.8892L14.2396 56.0611L3.98258 53.6544Z" fill="white"/>
<path d="M1.77633 60.8741C1.48982 60.5016 1.28927 60.1292 1.17466 59.6994C1.06006 59.2696 1.03141 58.8399 1.08871 58.4388C1.17466 57.8944 1.40387 57.3787 1.77633 56.9203C2.14879 56.4619 2.63585 56.118 3.26617 55.8888C3.89649 55.6596 4.61276 55.6023 5.44363 55.7456C6.24586 55.8602 6.96213 56.1467 7.5638 56.5765C8.16546 57.0062 8.62388 57.4933 8.93904 58.0949C9.2542 58.6966 9.34015 59.3269 9.2542 59.9859C9.16824 60.5303 8.93904 61.0173 8.62388 61.3898C8.28007 61.7623 7.8503 62.0488 7.33459 62.192C6.81887 62.3353 6.24586 62.3926 5.64419 62.3066L5.30038 62.2493L6.13125 57.1208C6.1026 57.1208 6.07395 57.1208 6.0453 57.0922C6.01665 57.0922 5.988 57.0922 5.95935 57.0635C5.24308 56.9489 4.58411 56.9776 4.03974 57.1208C3.49538 57.2641 3.03697 57.5219 2.69316 57.8944C2.34935 58.2382 2.14879 58.668 2.06284 59.155C1.97688 59.6134 2.03419 60.0432 2.20609 60.473C2.378 60.9027 2.63585 61.2465 3.00831 61.5617L2.86506 61.7623C2.4353 61.533 2.06284 61.2465 1.77633 60.8741ZM8.30872 58.2382C7.99356 57.8084 7.44919 57.4646 6.70427 57.2354L6.1026 60.9314C6.53237 60.9887 6.93348 60.9887 7.30594 60.9027C7.6784 60.8168 7.99356 60.6449 8.22276 60.4157C8.45197 60.1865 8.62388 59.9 8.68118 59.5275C8.76713 59.1264 8.62388 58.668 8.30872 58.2382Z" fill="white"/>
<path d="M0.314941 66.0888L0.343592 65.8309L6.70408 63.5388C7.27709 63.3383 7.6782 63.1664 7.93606 63.0231C8.19392 62.8799 8.36582 62.708 8.42313 62.4788H8.59503L8.36582 65.745H8.19392C8.10797 65.4011 7.93606 65.1433 7.64955 65.0287C7.3917 64.9141 7.01923 64.9141 6.58947 65.086L2.4351 66.5185L6.30296 68.3808C6.76138 68.61 7.13384 68.6673 7.449 68.5527C7.76416 68.4381 7.96471 68.2376 8.02201 67.9797H8.19392L8.02201 70.4437H7.85011C7.79281 70.2145 7.6209 70.0139 7.30574 69.7847C6.99058 69.5555 6.61812 69.3263 6.21701 69.1258L0.314941 66.0888Z" fill="white"/>
<path d="M3.20889 70.7303C3.63866 71.0741 4.03977 71.5612 4.35493 72.2488C4.67008 72.9364 4.89929 73.7673 5.01389 74.7987C5.32905 74.7987 5.61556 74.7987 5.93072 74.7701C6.24588 74.7701 6.53239 74.7701 6.79025 74.7414C7.07675 74.7414 7.33461 74.6555 7.53517 74.4836C7.73572 74.3117 7.82168 74.0252 7.82168 73.624C7.82168 73.2802 7.73572 73.0224 7.62112 72.8505C7.47787 72.6786 7.33461 72.5353 7.13406 72.4494C6.9335 72.3634 6.73294 72.2488 6.53239 72.1629C6.33183 72.0769 6.15993 71.9623 6.04532 71.8477C5.93072 71.7331 5.84477 71.5325 5.84477 71.3033C5.84477 71.1314 5.90207 70.9595 6.01667 70.8449C6.13128 70.7017 6.30318 70.6444 6.47509 70.6444C6.7616 70.6444 7.0481 70.7876 7.33461 71.0455C7.62112 71.332 7.85033 71.7044 8.05088 72.1915C8.25144 72.6786 8.33739 73.2516 8.36604 73.8819C8.36604 74.5409 8.25144 75.0852 7.99358 75.515C7.73572 75.9448 7.33461 76.1453 6.79025 76.174C6.38913 76.174 5.95937 76.174 5.52961 76.2026C5.09985 76.2026 4.67008 76.2026 4.21167 76.2313C3.75326 76.2313 3.3235 76.2599 2.89373 76.2599C2.46397 76.2599 2.03421 76.2886 1.60445 76.2886C1.40389 76.2886 1.23199 76.3459 1.11738 76.4318C1.00278 76.5178 0.945477 76.661 0.945477 76.8329C0.945477 76.9475 0.974128 77.0908 1.03143 77.2054C1.08873 77.3487 1.17468 77.4633 1.26064 77.5779L1.14603 77.6638C0.859525 77.5206 0.601667 77.2914 0.429762 77.0335C0.257857 76.747 0.143254 76.4605 0.143254 76.174C0.143254 75.9448 0.171905 75.7442 0.257857 75.5437C0.34381 75.3431 0.458413 75.1998 0.630318 75.0566C0.802223 74.9133 1.03143 74.856 1.34659 74.856C1.37524 74.856 1.37524 74.856 1.40389 74.856C1.43254 74.856 1.43254 74.856 1.46119 74.856V74.8274C1.00278 74.4549 0.658969 74.0538 0.401112 73.624C0.143254 73.1943 0.0286508 72.7359 0 72.2775C0 71.7044 0.143254 71.2174 0.487064 70.8163C0.830874 70.4438 1.26064 70.2433 1.77635 70.2146C2.29207 70.2433 2.75048 70.4152 3.20889 70.7303ZM3.23754 74.8274C3.69596 74.8274 4.12572 74.8274 4.55548 74.8274C4.41223 74.0538 4.24032 73.4235 4.01112 72.9651C3.78191 72.5067 3.5527 72.1629 3.26619 71.9623C2.97969 71.7617 2.66453 71.6758 2.32072 71.6758C1.91961 71.6758 1.60445 71.7904 1.37524 72.0196C1.14603 72.2488 1.03143 72.5353 1.03143 72.9078C1.03143 73.2802 1.11738 73.624 1.26064 73.9679C1.40389 74.3117 1.6331 74.6268 1.89095 74.8847C2.34937 74.856 2.77913 74.856 3.23754 74.8274Z" fill="white"/>
<path d="M7.76446 78.4372L7.64986 77.2052L7.90771 77.1765C8.25152 77.6636 8.68129 78.0647 9.11105 78.4085C9.56946 78.7523 10.0565 79.0675 10.6295 79.354L10.6582 79.5259L8.50938 79.7264L8.73859 82.0185L8.16557 82.0758L7.93636 79.7837L2.46406 80.3281C2.1489 80.3568 1.91969 80.4714 1.77644 80.6433C1.63318 80.8152 1.54723 81.073 1.57588 81.3595C1.60453 81.5887 1.66183 81.8179 1.77644 82.0472C1.89104 82.2764 2.06294 82.5056 2.29215 82.7348L2.03429 82.964C1.60453 82.7348 1.26072 82.4196 0.974213 82.0185C0.687705 81.6174 0.5158 81.2163 0.458498 80.7579C0.429847 80.4714 0.458498 80.2135 0.54445 79.9556C0.630403 79.6978 0.773657 79.4972 0.974213 79.3253C1.17477 79.1534 1.43263 79.0675 1.74779 79.0388L7.76446 78.4372Z" fill="white"/>
<path d="M2.75036 89.0665C2.34925 88.8086 2.03409 88.5221 1.77623 88.1497C1.51837 87.7772 1.37512 87.4047 1.28917 86.975C1.20321 86.4306 1.26052 85.8863 1.46107 85.3132C1.66163 84.7402 2.03409 84.2532 2.52115 83.852C3.03687 83.4223 3.69584 83.1644 4.55536 83.0212C5.35758 82.8779 6.10251 82.9066 6.81878 83.1071C7.53505 83.3077 8.13671 83.6515 8.62378 84.1099C9.11084 84.5683 9.39735 85.1413 9.54061 85.8003C9.62656 86.3447 9.59791 86.8604 9.39735 87.3188C9.1968 87.7772 8.88164 88.1783 8.45187 88.4935C8.02211 88.8086 7.5064 89.0378 6.90473 89.1238L6.56092 89.1811L5.67274 84.0526C5.64409 84.0526 5.61544 84.0526 5.58679 84.0813C5.55814 84.1099 5.52949 84.0813 5.50084 84.1099C4.78457 84.2245 4.1829 84.4537 3.69584 84.7975C3.20877 85.1127 2.89361 85.5138 2.66441 85.9436C2.46385 86.3733 2.40655 86.8604 2.4925 87.3188C2.57845 87.7772 2.75036 88.1783 3.06552 88.5221C3.35203 88.8659 3.72449 89.1238 4.15425 89.2957L4.09695 89.5249C3.58123 89.4676 3.15147 89.3244 2.75036 89.0665ZM8.07941 84.4537C7.64965 84.1386 7.01933 83.9953 6.21711 84.0526L6.84743 87.7486C7.27719 87.6626 7.64965 87.5194 7.99346 87.3188C8.33727 87.1182 8.56648 86.8604 8.70973 86.5739C8.85298 86.2874 8.91029 85.9436 8.85298 85.5998C8.79568 85.1413 8.53783 84.7689 8.07941 84.4537Z" fill="white"/>
<path d="M5.73035 102.39L4.55566 99.0374L4.75622 98.9801C4.95678 99.2666 5.21463 99.4671 5.52979 99.5244C5.8736 99.6104 6.21741 99.5817 6.61852 99.4385L9.2544 98.5216L12.8358 94.3386C13.2082 93.9089 13.5234 93.4791 13.7239 93.078C13.9531 92.6769 14.0677 92.3331 14.0964 92.0752L14.2969 91.9893L15.6435 95.7712L15.443 95.8285C15.2424 95.6279 15.0419 95.456 14.8127 95.3987C14.5835 95.3128 14.3256 95.3128 14.0964 95.3987C13.8672 95.4847 13.638 95.6566 13.4088 95.8858L10.4864 99.2952L14.8986 100.011C15.1851 100.04 15.443 100.011 15.6435 99.8969C15.8727 99.7823 16.016 99.6104 16.1592 99.3525C16.2739 99.0947 16.3598 98.8082 16.3885 98.493L16.589 98.4357L17.7064 101.587L17.5058 101.645C17.3339 101.444 17.0188 101.243 16.589 101.1C16.1592 100.928 15.7008 100.814 15.1565 100.728L9.77011 99.8396L7.10559 100.785C6.70448 100.928 6.41797 101.129 6.18876 101.415C5.98821 101.673 5.90225 101.988 5.9309 102.332L5.73035 102.39Z" fill="white"/>
<path d="M12.2627 102.533C12.9503 102.561 13.5806 102.762 14.1537 103.077C14.7267 103.421 15.1278 103.879 15.4143 104.51C15.7008 105.111 15.7868 105.742 15.6721 106.401C15.5575 107.059 15.2997 107.661 14.8699 108.206C14.4402 108.75 13.8671 109.208 13.1509 109.523C12.6065 109.781 12.0621 109.925 11.5464 109.953C11.0021 109.982 10.4863 109.925 9.99928 109.781C9.51222 109.638 9.08246 109.409 8.71 109.094C8.33754 108.779 8.05103 108.406 7.85047 107.948C7.64992 107.518 7.56396 107.059 7.56396 106.544C7.56396 106.028 7.67857 105.57 7.90777 105.111C8.10833 104.653 8.42349 104.252 8.79595 103.851C9.16841 103.478 9.62683 103.163 10.1712 102.905C10.8588 102.647 11.5464 102.504 12.2627 102.533ZM9.16841 105.34C8.73865 105.713 8.45214 106.114 8.30889 106.515C8.16563 106.916 8.16563 107.317 8.36619 107.747C8.53809 108.148 8.85325 108.435 9.25436 108.578C9.65548 108.721 10.1425 108.779 10.7156 108.693C11.2886 108.607 11.8902 108.435 12.5206 108.12C13.1509 107.833 13.6952 107.518 14.125 107.145C14.5548 106.773 14.8413 106.401 14.9845 105.971C15.1278 105.57 15.0991 105.14 14.8986 104.71C14.698 104.28 14.4115 103.994 14.0104 103.851C13.6093 103.707 13.1222 103.679 12.5779 103.736C12.0335 103.822 11.4318 103.994 10.8015 104.28C10.1425 104.653 9.59817 104.968 9.16841 105.34Z" fill="white"/>
<path d="M14.0391 116.428C14.211 116.314 14.3543 116.256 14.4689 116.199V116.17C14.0678 116.113 13.638 115.998 13.1796 115.855C12.7212 115.683 12.3201 115.511 11.9476 115.254C11.5751 115.024 11.2886 114.738 11.1167 114.423C10.8589 113.993 10.8302 113.592 10.9735 113.191C11.1167 112.79 11.4605 112.446 11.9189 112.159L15.1565 110.268C15.4716 110.068 15.7295 109.867 15.9014 109.638C16.0733 109.409 16.1306 109.151 16.0447 108.836L16.2452 108.721C16.4171 108.922 16.6177 109.094 16.8182 109.266C17.0188 109.437 17.248 109.552 17.4772 109.667C17.7064 109.781 17.9356 109.867 18.1648 109.925L18.2221 110.039L13.1509 113.019C12.8071 113.219 12.5493 113.449 12.4347 113.706C12.3201 113.936 12.3487 114.222 12.5206 114.537C12.6639 114.795 12.9217 115.024 13.2942 115.282C13.6666 115.511 14.1824 115.769 14.87 115.998L17.5059 114.451C17.8497 114.251 18.1362 114.022 18.3081 113.764C18.5086 113.506 18.5373 113.219 18.4513 112.904L18.6519 112.79C18.8238 112.962 18.9957 113.162 19.2249 113.305C19.4255 113.477 19.6547 113.62 19.8839 113.735C20.1131 113.85 20.3423 113.964 20.6001 114.022L20.6574 114.136L15.6722 117.087C15.2711 117.316 15.0132 117.546 14.8986 117.775C14.784 118.004 14.7554 118.262 14.8413 118.577L14.6694 118.692C14.4116 118.405 14.1251 118.147 13.8099 117.947C13.5234 117.718 13.1796 117.546 12.8358 117.431L12.7498 117.259L13.552 116.801C13.6953 116.657 13.8672 116.543 14.0391 116.428Z" fill="white"/>
<path d="M21.6887 117.86C21.5741 117.918 21.4881 117.975 21.4308 118.004L21.4595 118.061C21.7747 118.032 22.0898 118.061 22.405 118.118C22.7201 118.176 23.0353 118.262 23.2931 118.376C23.551 118.491 23.7802 118.663 23.9235 118.892C24.0667 119.092 24.124 119.35 24.0954 119.608C24.0667 119.866 23.9235 120.095 23.6943 120.238C23.465 120.382 23.2645 120.439 23.0353 120.41C22.8061 120.382 22.6342 120.267 22.5196 120.124C22.405 119.952 22.3477 119.78 22.3477 119.637C22.3477 119.465 22.3763 119.322 22.405 119.178C22.4336 119.035 22.3763 118.863 22.2904 118.72C22.1758 118.577 22.0325 118.462 21.832 118.433C21.6314 118.405 21.4022 118.348 21.1157 118.319L17.5057 120.897C17.2192 121.098 16.99 121.356 16.904 121.642C16.8181 121.929 16.7894 122.215 16.8467 122.531L16.6748 122.645L14.8125 120.038L14.9844 119.923C15.2709 120.095 15.5574 120.181 15.8439 120.153C16.1304 120.124 16.4169 120.009 16.7321 119.78L19.7118 117.631C20.0843 117.345 20.3421 117.087 20.4281 116.858C20.514 116.6 20.514 116.342 20.3994 116.027L20.6 115.884C20.8005 116.084 21.0297 116.256 21.2303 116.399C21.4595 116.543 21.6887 116.657 21.9179 116.772C22.1471 116.886 22.405 116.944 22.6342 117.001L22.7201 117.144L21.9752 117.66C21.9179 117.746 21.8033 117.803 21.6887 117.86Z" fill="white"/>
<path d="M23.1211 129.464C23.4649 129.407 23.7801 129.206 24.1239 128.891L29.7108 123.419C30.026 123.104 30.2265 122.789 30.3125 122.445C30.3984 122.101 30.3411 121.786 30.1406 121.528L30.2838 121.385L34.9253 126.141C35.0685 126.284 35.2404 126.399 35.3837 126.485C35.5556 126.571 35.6988 126.599 35.8134 126.599L35.928 126.714L34.123 129.264L33.9511 129.12C34.123 128.547 34.209 128.003 34.1803 127.516C34.1803 127.029 34.0657 126.571 33.8365 126.169C33.636 125.74 33.3495 125.367 32.977 124.995C32.4613 124.479 32.0315 124.193 31.6591 124.164C31.2866 124.135 30.9428 124.25 30.6563 124.536L28.5075 126.657L30.3125 128.49C30.6563 128.834 31.0001 129.063 31.3726 129.206C31.745 129.321 32.1461 129.292 32.5759 129.12L32.6905 129.235L30.5417 131.355L30.4271 131.241C30.5417 130.84 30.5703 130.438 30.513 130.066C30.4271 129.694 30.2265 129.321 29.8827 128.977L28.0491 127.115L25.1267 129.98C24.7829 130.295 24.611 130.639 24.5537 130.983C24.4964 131.327 24.5537 131.642 24.6969 131.9L24.5537 132.043L22.061 129.493L22.2043 129.35C22.4621 129.464 22.7773 129.522 23.1211 129.464Z" fill="white"/>
<path d="M33.1489 138.719C32.6904 138.776 32.232 138.747 31.8309 138.633C31.4012 138.518 31.0287 138.317 30.7135 138.031C30.2838 137.687 29.9686 137.2 29.7681 136.656C29.5675 136.083 29.5389 135.481 29.6535 134.851C29.7681 134.192 30.1119 133.561 30.6562 132.902C31.1719 132.272 31.7736 131.814 32.4612 131.527C33.1489 131.212 33.8078 131.097 34.4954 131.126C35.1544 131.183 35.7561 131.413 36.2718 131.842C36.7016 132.215 36.9881 132.645 37.1313 133.103C37.2746 133.59 37.3032 134.077 37.16 134.621C37.0167 135.166 36.7875 135.653 36.3864 136.111L36.1572 136.369L32.2034 133.017C32.1747 133.046 32.1747 133.074 32.1461 133.074C32.1174 133.103 32.1174 133.132 32.0888 133.132C31.6017 133.705 31.2866 134.249 31.1433 134.822C31 135.395 30.9714 135.882 31.1146 136.369C31.2293 136.828 31.4871 137.229 31.8596 137.544C32.2034 137.83 32.6045 138.031 33.0629 138.088C33.5213 138.174 33.9511 138.117 34.4095 137.974L34.4954 138.203C34.037 138.489 33.6073 138.661 33.1489 138.719ZM34.2662 131.756C33.7219 131.814 33.1775 132.1 32.5758 132.616L35.4409 135.051C35.7274 134.707 35.928 134.364 36.0426 133.991C36.1572 133.619 36.1858 133.275 36.0999 132.96C36.0139 132.645 35.842 132.358 35.5842 132.129C35.2404 131.842 34.8106 131.728 34.2662 131.756Z" fill="white"/>
<path d="M39.3088 143.217C38.8504 143.331 38.4206 143.331 37.9909 143.245C37.5611 143.159 37.16 143.016 36.8162 142.758C36.3578 142.443 36.014 142.013 35.7561 141.469C35.4983 140.925 35.4123 140.323 35.4696 139.664C35.5269 139.005 35.8134 138.346 36.3005 137.63C36.7589 136.971 37.3319 136.455 37.9622 136.083C38.6212 135.71 39.2802 135.538 39.9391 135.51C40.6268 135.51 41.2284 135.681 41.7728 136.083C42.2312 136.398 42.5464 136.799 42.7469 137.257C42.9475 137.716 43.0048 138.231 42.9188 138.747C42.8329 139.291 42.6323 139.807 42.2598 140.294L42.0593 140.581L37.8476 137.63C37.819 137.658 37.819 137.687 37.7903 137.716C37.7617 137.744 37.7617 137.773 37.733 137.802C37.3033 138.403 37.0454 138.976 36.9308 139.549C36.8162 140.122 36.8448 140.638 37.0168 141.096C37.1887 141.555 37.4752 141.927 37.8763 142.214C38.2487 142.472 38.6785 142.615 39.1369 142.672C39.5953 142.73 40.0251 142.615 40.4549 142.443L40.5695 142.644C40.197 142.901 39.7672 143.102 39.3088 143.217ZM39.8245 136.197C39.3088 136.283 38.7645 136.627 38.2201 137.229L41.2857 139.377C41.5436 139.005 41.7155 138.661 41.8014 138.289C41.8874 137.916 41.8587 137.572 41.7728 137.257C41.6868 136.942 41.4576 136.684 41.1711 136.484C40.7987 136.168 40.3402 136.083 39.8245 136.197Z" fill="white"/>
<path d="M43.2052 144.592C43.0047 144.936 42.8901 145.251 42.8901 145.537C42.8901 145.824 42.976 146.082 43.1479 146.282L43.0333 146.454L40.4834 144.907L40.598 144.735C40.8559 144.793 41.0851 144.735 41.3429 144.592C41.6008 144.449 41.83 144.191 42.0305 143.847L46.0417 137.257C46.2422 136.942 46.3282 136.656 46.3855 136.341C46.4141 136.025 46.3282 135.767 46.0703 135.51L46.1849 135.309C46.4428 135.395 46.7006 135.481 46.9871 135.538C47.245 135.596 47.5029 135.596 47.7607 135.596C48.0186 135.596 48.2764 135.567 48.5056 135.51L48.6775 135.596L43.2052 144.592Z" fill="white"/>
<path d="M44.0361 146.827C44.3227 146.884 44.5805 146.827 44.8384 146.683C45.0962 146.54 45.3254 146.282 45.526 145.939L47.2737 142.701C47.4456 142.386 47.5315 142.099 47.5888 141.784C47.6175 141.469 47.5029 141.211 47.2164 140.953L47.331 140.753C47.5889 140.839 47.8754 140.896 48.1332 140.925C48.3911 140.953 48.6776 140.982 48.9354 140.953C49.1933 140.925 49.4512 140.896 49.6804 140.839L49.8236 140.925L46.7293 146.598C46.5288 146.97 46.4428 147.285 46.4428 147.572C46.4428 147.858 46.5288 148.087 46.7293 148.288L46.6434 148.46L43.9502 146.999L44.0361 146.827ZM49.3366 138.776C49.2792 138.518 49.3079 138.289 49.4512 138.031C49.5944 137.802 49.7663 137.63 49.9955 137.544C50.2247 137.458 50.4539 137.487 50.6831 137.601C50.9123 137.716 51.0556 137.916 51.1416 138.174C51.1989 138.432 51.1702 138.661 51.0269 138.919C50.8837 139.148 50.7118 139.32 50.4539 139.406C50.1961 139.492 49.9669 139.463 49.7377 139.349C49.5371 139.206 49.3939 139.005 49.3366 138.776Z" fill="white"/>
<path d="M48.5918 148.689C48.8497 148.517 49.0502 148.259 49.1935 147.915L50.6833 144.563C50.8839 144.133 50.9412 143.79 50.9125 143.532C50.8839 143.274 50.712 143.045 50.4541 142.844L50.5401 142.644C50.8266 142.701 51.0844 142.758 51.3423 142.758C51.6001 142.758 51.8866 142.758 52.1445 142.73C52.4024 142.701 52.6602 142.644 52.8894 142.558L53.0327 142.615L52.6602 143.417C52.5743 143.618 52.4883 143.818 52.4024 143.99C52.3164 144.162 52.2305 144.334 52.1732 144.42L52.2018 144.449C52.5743 144.277 53.004 144.133 53.4624 143.99C53.9209 143.847 54.3793 143.79 54.8377 143.79C55.2961 143.79 55.6972 143.847 56.041 143.99C56.4994 144.191 56.7573 144.506 56.8719 144.936C56.9865 145.365 56.9292 145.824 56.7 146.311L54.8377 150.465C54.6658 150.838 54.6085 151.153 54.6085 151.439C54.6371 151.726 54.7231 151.955 54.9236 152.156L54.8377 152.356L52.0872 151.124L52.1732 150.924C52.517 150.895 52.7748 150.809 53.004 150.666C53.2332 150.523 53.4051 150.265 53.577 149.921L55.1815 146.34C55.3534 145.996 55.382 145.681 55.3247 145.423C55.2674 145.165 55.0955 144.964 54.7804 144.821C54.4939 144.678 54.1214 144.62 53.663 144.62C53.2046 144.62 52.6316 144.735 51.9726 144.907L50.3682 148.517C50.1962 148.861 50.1676 149.176 50.2249 149.462C50.2822 149.72 50.3968 149.978 50.5687 150.236L50.4828 150.437L47.6177 149.147L47.7036 148.947C48.0761 148.918 48.3626 148.861 48.5918 148.689Z" fill="white"/>
<path d="M61.7998 156.883C61.3414 157.112 60.7684 157.256 60.1381 157.256C59.5077 157.256 58.8488 157.141 58.2185 156.94C57.846 156.826 57.4735 156.654 57.1011 156.453C56.7286 156.253 56.4135 156.024 56.1269 155.766C55.8404 155.508 55.6399 155.221 55.4966 154.906C55.382 154.591 55.3534 154.276 55.468 153.961C55.5539 153.674 55.7545 153.445 56.0696 153.273C56.3848 153.101 56.7573 152.987 57.187 152.929C57.6168 152.872 58.0752 152.872 58.5336 152.958C58.2471 152.729 58.0179 152.499 57.8173 152.242C57.6168 151.984 57.5022 151.697 57.5022 151.382L57.5595 151.239C57.8746 151.21 58.2185 151.153 58.5336 151.067C58.8488 150.981 59.1639 150.866 59.4791 150.694C59.078 150.465 58.7628 150.207 58.505 149.864C58.2471 149.52 58.0752 149.176 57.9892 148.775C57.9033 148.374 57.9319 148.001 58.0752 147.6C58.2185 147.17 58.4763 146.798 58.8488 146.511C59.2212 146.225 59.651 146.053 60.1381 145.967C60.6251 145.881 61.1122 145.91 61.6279 146.082C62.029 146.225 62.3728 146.397 62.6593 146.655C62.9458 146.913 63.2037 147.199 63.3756 147.514C63.6621 147.285 63.9773 147.113 64.3211 146.999C64.6649 146.884 64.98 146.884 65.2666 146.97C65.4958 147.056 65.639 147.17 65.7536 147.342C65.8682 147.514 65.8682 147.715 65.7823 147.944C65.725 148.145 65.6104 148.288 65.4385 148.374C65.2666 148.46 65.0947 148.488 64.9514 148.431C64.8081 148.374 64.6935 148.316 64.6076 148.202C64.5503 148.087 64.4643 148.001 64.407 147.915C64.3497 147.829 64.2638 147.743 64.1492 147.715C64.0059 147.658 63.8054 147.715 63.5189 147.887C63.6335 148.145 63.6621 148.402 63.6908 148.66C63.6908 148.918 63.6621 149.176 63.5762 149.434C63.4329 149.892 63.175 150.236 62.8026 150.523C62.4301 150.809 62.0004 150.981 61.5133 151.067C61.0262 151.153 60.5105 151.124 60.0235 150.952H59.9948C59.9948 150.952 59.9662 150.952 59.9662 150.924C59.8229 150.981 59.651 151.067 59.5077 151.153C59.3645 151.239 59.2785 151.353 59.2212 151.468C59.1639 151.611 59.2212 151.783 59.4218 151.955C59.5937 152.127 59.8515 152.299 60.1667 152.499C60.4819 152.7 60.8257 152.901 61.1695 153.13C61.5133 153.359 61.8285 153.588 62.115 153.875C62.4015 154.161 62.6307 154.448 62.7453 154.763C62.8885 155.078 62.8885 155.422 62.7453 155.823C62.5734 156.281 62.2582 156.654 61.7998 156.883ZM56.9865 155.479C57.3589 155.909 57.9033 156.224 58.6482 156.425C59.1066 156.568 59.5364 156.654 59.9375 156.654C60.3386 156.654 60.6824 156.568 60.9403 156.425C61.2268 156.281 61.3987 156.081 61.4846 155.852C61.5706 155.594 61.5706 155.336 61.456 155.135C61.3414 154.906 61.1695 154.706 60.9116 154.534C60.6538 154.362 60.3959 154.161 60.0808 153.961C59.7656 153.76 59.4504 153.588 59.1353 153.388C58.4477 153.273 57.9033 153.302 57.4735 153.445C57.0438 153.588 56.7859 153.846 56.6427 154.219C56.5281 154.648 56.614 155.078 56.9865 155.479ZM60.1667 146.798C59.8229 147.056 59.5364 147.486 59.3645 148.059C59.1639 148.632 59.1639 149.119 59.3072 149.548C59.4504 149.978 59.7369 150.265 60.1954 150.408C60.6824 150.58 61.1122 150.523 61.4846 150.265C61.8571 150.007 62.115 149.577 62.3155 149.004C62.4874 148.431 62.5447 147.944 62.4015 147.514C62.2869 147.084 61.9431 146.798 61.4273 146.626C60.9403 146.454 60.5392 146.511 60.1667 146.798Z" fill="white"/>
<path d="M69.4782 155.479C69.1057 155.794 68.676 155.995 68.1316 156.109C67.5872 156.224 67.0429 156.195 66.4126 156.052C66.0114 155.966 65.5817 155.823 65.1519 155.622C64.7222 155.422 64.2637 155.164 63.834 154.877L65.0946 153.044L65.2379 153.072C65.2092 153.531 65.2665 153.932 65.4384 154.276C65.6103 154.619 65.8682 154.906 66.1547 155.107C66.4699 155.336 66.8137 155.479 67.1575 155.565C67.6159 155.68 68.0457 155.622 68.4181 155.45C68.7906 155.25 69.0198 154.963 69.1057 154.619C69.1917 154.304 69.1344 154.018 68.9625 153.789C68.7906 153.559 68.5614 153.33 68.2749 153.158C67.9884 152.958 67.6732 152.757 67.3294 152.585C67.0715 152.442 66.8137 152.241 66.5558 152.07C66.298 151.869 66.0974 151.668 65.8968 151.468C65.7249 151.239 65.5817 151.009 65.4957 150.723C65.4098 150.436 65.4098 150.121 65.4957 149.749C65.5817 149.348 65.7822 148.975 66.0974 148.689C66.4126 148.402 66.8137 148.202 67.2721 148.087C67.7305 147.972 68.2749 148.001 68.8765 148.144C69.1917 148.23 69.5355 148.345 69.908 148.488C70.2804 148.631 70.5956 148.832 70.8534 149.004L69.908 150.723L69.7361 150.694C69.7361 150.15 69.5928 149.692 69.2776 149.319C68.9625 148.947 68.59 148.717 68.1889 148.631C67.7591 148.545 67.4153 148.574 67.1002 148.746C66.785 148.918 66.6131 149.176 66.5272 149.491C66.4699 149.777 66.4985 150.064 66.6704 150.293C66.8423 150.522 67.0715 150.723 67.3867 150.924C67.7018 151.124 68.017 151.325 68.3322 151.525C68.676 151.754 69.0198 151.984 69.3063 152.241C69.6215 152.499 69.8507 152.786 69.9939 153.13C70.1372 153.473 70.1658 153.875 70.0799 154.333C70.0799 154.791 69.8507 155.192 69.4782 155.479Z" fill="white"/>
<path d="M104.833 144.334C105.378 144.363 105.865 144.392 106.266 144.477L105.808 147.543L105.607 147.572C105.263 146.741 104.805 146.168 104.26 145.824C103.687 145.48 103.086 145.394 102.427 145.509C101.825 145.652 101.309 145.939 100.908 146.397C100.507 146.855 100.249 147.457 100.135 148.173C100.02 148.89 100.049 149.692 100.221 150.58C100.421 151.554 100.765 152.385 101.252 153.101C101.739 153.818 102.312 154.333 102.971 154.649C103.63 154.964 104.346 155.05 105.12 154.878C105.808 154.734 106.409 154.419 106.839 153.932C107.297 153.445 107.613 152.786 107.813 151.984L108.071 152.013C108.042 152.786 107.899 153.474 107.613 154.076C107.326 154.677 106.954 155.193 106.467 155.565C105.979 155.966 105.435 156.224 104.805 156.339C104.203 156.482 103.573 156.454 102.971 156.31C102.369 156.167 101.768 155.881 101.252 155.451C100.708 155.05 100.249 154.505 99.8482 153.875C99.4471 153.245 99.1893 152.528 98.9887 151.697C98.8168 150.838 98.7881 150.007 98.9027 149.205C99.0174 148.403 99.2752 147.658 99.6477 146.999C100.02 146.34 100.507 145.767 101.109 145.308C101.711 144.85 102.398 144.535 103.143 144.392C103.745 144.363 104.289 144.334 104.833 144.334Z" fill="white"/>
<path d="M108.271 149.119C108.386 148.431 108.644 147.83 109.045 147.314C109.446 146.798 109.962 146.426 110.592 146.225C111.222 146.025 111.853 145.996 112.483 146.168C113.113 146.34 113.686 146.684 114.173 147.171C114.661 147.658 115.033 148.288 115.291 149.033C115.463 149.606 115.549 150.15 115.52 150.695C115.491 151.239 115.377 151.726 115.176 152.213C114.976 152.672 114.718 153.073 114.345 153.416C114.002 153.76 113.6 153.989 113.113 154.161C112.655 154.305 112.197 154.362 111.71 154.276C111.222 154.219 110.764 154.047 110.334 153.789C109.905 153.531 109.532 153.187 109.188 152.757C108.844 152.328 108.587 151.841 108.415 151.268C108.243 150.523 108.185 149.806 108.271 149.119ZM110.735 152.5C111.051 152.958 111.423 153.302 111.795 153.502C112.197 153.703 112.598 153.732 113.027 153.588C113.457 153.445 113.772 153.187 113.973 152.786C114.173 152.385 114.288 151.927 114.259 151.354C114.231 150.781 114.116 150.179 113.916 149.491C113.686 148.832 113.429 148.259 113.113 147.801C112.798 147.342 112.454 146.999 112.053 146.827C111.652 146.626 111.251 146.626 110.793 146.769C110.363 146.913 110.048 147.171 109.847 147.543C109.647 147.916 109.561 148.403 109.589 148.947C109.618 149.491 109.733 150.122 109.933 150.781C110.134 151.468 110.42 152.041 110.735 152.5Z" fill="white"/>
<path d="M117.898 151.468C117.955 151.182 117.898 150.838 117.726 150.494L116.236 147.142C116.036 146.712 115.835 146.426 115.635 146.282C115.405 146.139 115.148 146.082 114.804 146.139L114.718 145.939C114.947 145.767 115.148 145.595 115.348 145.423C115.549 145.251 115.692 145.022 115.864 144.821C116.007 144.592 116.122 144.391 116.236 144.162L116.38 144.105L116.752 144.907C116.838 145.108 116.924 145.308 117.01 145.48C117.096 145.681 117.153 145.824 117.182 145.939H117.21C117.325 145.537 117.497 145.108 117.726 144.678C117.955 144.248 118.213 143.847 118.5 143.503C118.786 143.159 119.13 142.902 119.474 142.758C119.932 142.558 120.333 142.558 120.734 142.758C121.107 142.959 121.422 143.303 121.651 143.818L123.485 147.973C123.657 148.345 123.829 148.603 124.058 148.775C124.287 148.947 124.516 149.033 124.774 149.004L124.86 149.205L122.11 150.408L122.024 150.208C122.224 149.95 122.368 149.692 122.396 149.434C122.425 149.176 122.368 148.861 122.224 148.517L120.62 144.907C120.448 144.563 120.276 144.305 120.047 144.162C119.818 144.019 119.531 144.019 119.216 144.162C118.929 144.277 118.614 144.506 118.328 144.85C118.013 145.194 117.726 145.681 117.411 146.311L119.015 149.921C119.187 150.265 119.359 150.523 119.617 150.666C119.846 150.809 120.133 150.895 120.419 150.924L120.505 151.124L117.612 152.414L117.526 152.213C117.726 152.013 117.869 151.755 117.898 151.468Z" fill="white"/>
<path d="M126.064 147.715C126.092 147.428 125.978 147.113 125.777 146.769L123.944 143.589C123.714 143.188 123.485 142.902 123.256 142.787C123.027 142.672 122.74 142.644 122.425 142.73L122.311 142.529C122.511 142.357 122.712 142.157 122.884 141.928C123.055 141.698 123.199 141.498 123.313 141.269C123.428 141.039 123.543 140.81 123.6 140.581L123.743 140.495L124.202 141.269C124.316 141.469 124.402 141.641 124.517 141.813C124.603 141.985 124.689 142.128 124.746 142.243H124.775C124.86 141.842 124.975 141.412 125.147 140.953C125.319 140.495 125.548 140.094 125.806 139.721C126.064 139.349 126.35 139.062 126.694 138.862C127.124 138.604 127.525 138.575 127.926 138.747C128.327 138.919 128.671 139.234 128.929 139.693L131.192 143.618C131.393 143.962 131.622 144.22 131.851 144.363C132.08 144.506 132.338 144.563 132.596 144.535L132.711 144.735L130.104 146.225L129.989 146.025C130.161 145.738 130.275 145.48 130.275 145.222C130.275 144.964 130.19 144.649 129.989 144.334L128.012 140.925C127.812 140.581 127.611 140.352 127.353 140.266C127.095 140.151 126.837 140.18 126.551 140.352C126.264 140.495 126.007 140.753 125.749 141.154C125.491 141.526 125.233 142.042 124.975 142.701L126.952 146.139C127.153 146.483 127.353 146.712 127.611 146.827C127.869 146.941 128.127 146.999 128.442 146.999L128.556 147.199L125.835 148.775L125.72 148.574C125.949 148.259 126.064 148.001 126.064 147.715Z" fill="white"/>
<path d="M137.753 140.122C137.696 140.581 137.553 141.011 137.352 141.383C137.123 141.755 136.836 142.071 136.493 142.329C136.034 142.644 135.518 142.844 134.917 142.902C134.315 142.959 133.713 142.844 133.14 142.558C132.539 142.271 131.994 141.784 131.507 141.097C131.049 140.438 130.734 139.75 130.619 139.005C130.476 138.26 130.533 137.601 130.734 136.942C130.934 136.312 131.335 135.796 131.88 135.395C132.338 135.08 132.825 134.879 133.312 134.879C133.828 134.851 134.315 134.965 134.802 135.223C135.289 135.481 135.69 135.853 136.063 136.34L136.263 136.627L132.023 139.635C132.052 139.664 132.052 139.693 132.08 139.721C132.109 139.75 132.109 139.779 132.138 139.807C132.567 140.409 133.026 140.839 133.542 141.125C134.057 141.412 134.544 141.555 135.031 141.555C135.518 141.555 135.948 141.412 136.349 141.125C136.722 140.867 137.008 140.524 137.18 140.094C137.352 139.664 137.438 139.234 137.381 138.776L137.61 138.747C137.782 139.206 137.81 139.664 137.753 140.122ZM131.307 137.315C131.221 137.83 131.364 138.461 131.737 139.148L134.802 136.971C134.544 136.598 134.258 136.34 133.943 136.14C133.627 135.939 133.284 135.825 132.94 135.825C132.596 135.825 132.281 135.911 131.994 136.111C131.622 136.398 131.393 136.799 131.307 137.315Z" fill="white"/>
<path d="M138.384 130.381C138.699 130.209 138.985 130.066 139.301 129.951L140.189 132.243L140.017 132.387C139.53 131.928 139.071 131.699 138.613 131.642C138.155 131.613 137.753 131.728 137.41 132.014C136.951 132.387 136.751 132.902 136.808 133.533C136.865 134.163 137.152 134.822 137.725 135.452C138.183 135.997 138.699 136.427 139.215 136.713C139.73 137 140.217 137.143 140.704 137.114C141.192 137.114 141.621 136.914 142.022 136.598C142.366 136.312 142.595 135.911 142.71 135.452C142.825 134.994 142.796 134.507 142.681 134.02L142.882 133.963C143.168 134.478 143.312 134.965 143.312 135.452C143.312 135.939 143.226 136.369 143.054 136.799C142.882 137.229 142.595 137.573 142.223 137.859C141.936 138.117 141.564 138.289 141.163 138.375C140.762 138.489 140.332 138.489 139.874 138.432C139.415 138.375 138.985 138.232 138.527 137.974C138.069 137.716 137.667 137.372 137.295 136.914C136.779 136.283 136.435 135.624 136.235 134.879C136.063 134.134 136.063 133.447 136.264 132.759C136.464 132.072 136.865 131.47 137.438 130.983C137.782 130.782 138.069 130.553 138.384 130.381Z" fill="white"/>
<path d="M140.503 129.378L139.615 130.238L139.443 130.066C139.615 129.493 139.673 128.92 139.644 128.347C139.615 127.774 139.558 127.201 139.443 126.57L139.587 126.427L141.105 127.974L142.738 126.37L143.139 126.8L141.506 128.404L145.345 132.329C145.575 132.558 145.775 132.673 146.033 132.673C146.262 132.673 146.491 132.587 146.721 132.387C146.893 132.243 147.007 132.043 147.122 131.814C147.236 131.584 147.294 131.298 147.351 130.983L147.637 131.011C147.723 131.498 147.695 131.957 147.58 132.444C147.466 132.902 147.236 133.303 146.893 133.619C146.692 133.819 146.463 133.962 146.205 134.048C145.947 134.134 145.689 134.134 145.431 134.106C145.174 134.077 144.944 133.905 144.715 133.676L140.503 129.378Z" fill="white"/>
<path d="M150.131 117.632L155.058 124.164L154.801 124.537L145.26 121.586C144.63 121.385 144.143 121.299 143.77 121.328C143.426 121.356 143.111 121.442 142.882 121.586L142.71 121.471L144.801 118.549L144.973 118.663C144.887 118.978 144.945 119.294 145.088 119.609C145.26 119.924 145.604 120.153 146.148 120.325L153.024 122.531L149.013 117.288L148.44 117.087C147.81 116.887 147.323 116.801 146.95 116.83C146.578 116.858 146.291 116.944 146.062 117.116L145.89 117.001L147.982 114.079L148.154 114.194C148.096 114.509 148.125 114.795 148.297 115.111C148.469 115.426 148.813 115.655 149.357 115.827L156.233 118.148L151.878 112.303C151.649 112.016 151.42 111.844 151.162 111.758C150.904 111.672 150.646 111.672 150.417 111.73C150.159 111.787 149.959 111.873 149.787 111.959L149.615 111.844L151.391 109.38L151.563 109.495C151.506 109.724 151.534 110.039 151.678 110.469C151.792 110.87 152.021 111.3 152.337 111.701L158.267 119.752L158.01 120.124L150.131 117.632Z" fill="white"/>
<path d="M152.509 110.068C152.251 110.125 152.021 110.068 151.764 109.953C151.506 109.839 151.362 109.638 151.277 109.38C151.191 109.151 151.219 108.922 151.334 108.693C151.477 108.463 151.649 108.32 151.907 108.263C152.165 108.205 152.394 108.234 152.652 108.377C152.91 108.521 153.053 108.693 153.139 108.95C153.225 109.208 153.196 109.437 153.053 109.667C152.967 109.867 152.766 110.01 152.509 110.068ZM160.502 115.483C160.559 115.196 160.531 114.938 160.388 114.681C160.244 114.423 159.986 114.193 159.643 113.993L156.434 112.188C156.119 112.016 155.832 111.901 155.517 111.873C155.202 111.815 154.944 111.959 154.686 112.245L154.485 112.131C154.571 111.873 154.629 111.586 154.686 111.328C154.715 111.071 154.743 110.813 154.715 110.526C154.715 110.268 154.657 110.01 154.629 109.781L154.715 109.638L160.33 112.79C160.674 112.99 161.018 113.105 161.304 113.076C161.591 113.076 161.82 112.99 162.021 112.818L162.193 112.904L160.703 115.569L160.502 115.483Z" fill="white"/>
<path d="M156.433 108.263L155.889 109.351L155.66 109.237C155.602 108.635 155.488 108.062 155.287 107.546C155.087 107.031 154.829 106.486 154.514 105.942L154.6 105.77L156.548 106.744L157.579 104.681L158.095 104.939L157.064 107.002L161.992 109.437C162.278 109.581 162.507 109.609 162.736 109.552C162.966 109.495 163.138 109.323 163.281 109.036C163.367 108.836 163.453 108.607 163.481 108.349C163.51 108.091 163.481 107.804 163.424 107.489L163.711 107.432C163.94 107.862 164.083 108.32 164.112 108.807C164.14 109.294 164.083 109.753 163.854 110.154C163.739 110.412 163.567 110.612 163.338 110.784C163.109 110.956 162.88 111.042 162.622 111.071C162.364 111.099 162.077 111.071 161.82 110.927L156.433 108.263Z" fill="white"/>
<path d="M164.513 106.601C164.341 106.372 164.083 106.2 163.711 106.028L156.519 103.163C156.089 102.991 155.746 102.933 155.488 102.962C155.23 103.019 155.001 103.163 154.8 103.421L154.6 103.335C154.657 103.048 154.686 102.79 154.686 102.504C154.686 102.217 154.657 101.988 154.628 101.73C154.571 101.472 154.514 101.243 154.428 101.014L154.485 100.871L159.098 102.704C159.298 102.79 159.499 102.876 159.671 102.933C159.843 103.019 160.015 103.077 160.101 103.134L160.129 103.105C159.929 102.733 159.757 102.332 159.614 101.845C159.47 101.386 159.384 100.928 159.356 100.469C159.327 100.011 159.384 99.61 159.528 99.2662C159.699 98.8077 160.015 98.5212 160.416 98.4066C160.846 98.292 161.304 98.3207 161.791 98.5212L166.031 100.212C166.404 100.355 166.719 100.412 167.005 100.384C167.292 100.355 167.521 100.24 167.693 100.04L167.894 100.126L166.776 102.962L166.576 102.876C166.547 102.561 166.461 102.274 166.318 102.045C166.175 101.816 165.917 101.644 165.544 101.501L161.877 100.04C161.504 99.8965 161.189 99.8678 160.931 99.9538C160.674 100.04 160.473 100.212 160.33 100.527C160.215 100.813 160.158 101.186 160.187 101.644C160.215 102.131 160.33 102.676 160.53 103.335L164.226 104.796C164.57 104.939 164.885 104.968 165.143 104.91C165.401 104.853 165.659 104.71 165.888 104.538L166.089 104.624L164.943 107.489L164.742 107.403C164.771 107.088 164.685 106.83 164.513 106.601Z" fill="white"/>
<path d="M170.415 90.9575L169.555 94.3956L169.355 94.3383C169.355 93.9945 169.24 93.6793 169.011 93.4501C168.782 93.1923 168.467 93.0203 168.037 92.9344L165.344 92.2754L160.043 93.8226C159.499 93.9945 159.012 94.1664 158.611 94.3669C158.21 94.5675 157.923 94.7967 157.751 94.9973L157.551 94.94L158.496 91.0434L158.697 91.1007C158.754 91.3873 158.84 91.6165 158.983 91.817C159.127 92.0176 159.327 92.1322 159.585 92.2181C159.843 92.2754 160.101 92.2754 160.416 92.1895L164.742 90.9288L161.447 87.8919C161.218 87.6913 160.989 87.6053 160.76 87.5767C160.53 87.548 160.273 87.6054 160.043 87.7486C159.814 87.8919 159.585 88.0924 159.384 88.3503L159.184 88.293L159.986 85.0554L160.187 85.1127C160.215 85.3992 160.387 85.7144 160.645 86.0869C160.903 86.4593 161.247 86.8031 161.619 87.1756L165.63 90.8715L168.381 91.5592C168.782 91.6738 169.154 91.6451 169.498 91.5592C169.842 91.4732 170.071 91.244 170.214 90.9288L170.415 90.9575Z" fill="white"/>
<path d="M165 87.4621C164.427 87.061 164.026 86.5453 163.74 85.9722C163.453 85.3706 163.367 84.7403 163.482 84.0813C163.596 83.4223 163.854 82.8493 164.313 82.3622C164.742 81.8752 165.315 81.5314 165.974 81.3022C166.633 81.073 167.35 81.0157 168.152 81.1589C168.753 81.2449 169.269 81.4168 169.728 81.7033C170.186 81.9611 170.587 82.3049 170.931 82.6774C171.246 83.0785 171.504 83.4796 171.647 83.9667C171.79 84.4251 171.819 84.9122 171.733 85.3992C171.647 85.8863 171.475 86.3161 171.189 86.7172C170.902 87.1183 170.558 87.4621 170.129 87.7199C169.699 87.9778 169.241 88.1784 168.696 88.2643C168.18 88.3789 167.607 88.3789 167.034 88.293C166.232 88.1497 165.573 87.8919 165 87.4621ZM169.126 86.8318C169.699 86.7458 170.157 86.6026 170.501 86.3447C170.845 86.0868 171.074 85.743 171.132 85.2846C171.189 84.8549 171.103 84.4538 170.845 84.0813C170.587 83.7088 170.215 83.4223 169.699 83.1931C169.183 82.9639 168.582 82.792 167.894 82.6774C167.206 82.5628 166.576 82.5628 166.032 82.6201C165.487 82.6774 165.029 82.8493 164.685 83.1072C164.341 83.365 164.141 83.7375 164.055 84.1959C163.997 84.6543 164.083 85.0554 164.341 85.3992C164.599 85.743 164.972 86.0296 165.487 86.2874C166.003 86.5166 166.605 86.6885 167.292 86.8031C167.923 86.8891 168.553 86.9177 169.126 86.8318Z" fill="white"/>
<path d="M171.16 75.1138C170.959 75.1138 170.787 75.0852 170.673 75.0852L170.644 75.1138C170.959 75.4003 171.246 75.7155 171.532 76.0879C171.819 76.4604 172.048 76.8615 172.22 77.2626C172.392 77.6637 172.478 78.0649 172.449 78.4373C172.421 78.9244 172.22 79.2968 171.876 79.5547C171.532 79.8126 171.074 79.8985 170.53 79.8699L166.776 79.6693C166.404 79.6406 166.089 79.6979 165.831 79.7839C165.573 79.8698 165.372 80.0704 165.258 80.3856H165.029C165 80.1277 164.943 79.8698 164.857 79.612C164.771 79.3541 164.656 79.1249 164.542 78.8957C164.427 78.6665 164.284 78.466 164.112 78.2941V78.1508L169.985 78.466C170.386 78.4946 170.73 78.4373 170.959 78.2941C171.189 78.1508 171.332 77.9216 171.36 77.5778C171.389 77.2913 171.303 76.9475 171.131 76.5464C170.959 76.1452 170.644 75.6582 170.214 75.0852L167.177 74.9133C166.776 74.8846 166.433 74.9419 166.117 75.0279C165.802 75.1138 165.63 75.343 165.516 75.6868H165.286C165.258 75.429 165.201 75.1998 165.115 74.9419C165.029 74.6841 164.914 74.4548 164.799 74.2256C164.685 73.9964 164.542 73.7672 164.37 73.5953V73.4521L170.157 73.7672C170.616 73.7959 170.959 73.7386 171.189 73.624C171.418 73.5094 171.59 73.2802 171.676 72.9937H171.905C171.962 73.3661 172.077 73.7386 172.191 74.0824C172.306 74.4262 172.478 74.77 172.707 75.0565V75.2284L171.79 75.1711C171.561 75.1425 171.36 75.1425 171.16 75.1138Z" fill="white"/>
<path d="M165.573 69.9278C165.688 69.9278 165.803 69.9278 165.86 69.9564V69.8991C165.602 69.7559 165.344 69.5553 165.115 69.3261C164.886 69.0969 164.685 68.8677 164.513 68.6098C164.37 68.352 164.284 68.0941 164.255 67.8363C164.255 67.5784 164.341 67.3492 164.513 67.1487C164.685 66.9481 164.914 66.8335 165.201 66.8335C165.459 66.8335 165.688 66.8908 165.86 67.0627C166.032 67.2346 166.118 67.4065 166.118 67.6071C166.118 67.8076 166.089 67.9795 165.974 68.0941C165.888 68.2087 165.774 68.352 165.659 68.4666C165.545 68.5812 165.516 68.7244 165.516 68.8964C165.516 69.0683 165.602 69.2402 165.717 69.3834C165.86 69.5267 166.032 69.6986 166.232 69.8705L170.673 69.7559C171.046 69.7559 171.361 69.6413 171.59 69.4694C171.819 69.2975 172.02 69.0683 172.134 68.7818H172.364L172.45 71.9906H172.22C172.077 71.6755 171.905 71.4749 171.647 71.3317C171.389 71.1884 171.074 71.1311 170.702 71.1311L167.035 71.2457C166.576 71.2457 166.232 71.3317 166.003 71.5036C165.774 71.6468 165.631 71.876 165.573 72.2199H165.344C165.287 71.9333 165.201 71.6755 165.086 71.4463C164.972 71.2171 164.857 70.9592 164.714 70.7587C164.571 70.5295 164.399 70.3575 164.255 70.157V69.9851L165.172 69.9564C165.344 69.9278 165.459 69.9278 165.573 69.9278Z" fill="white"/>
<path d="M170.759 60.8169C171.16 61.0462 171.504 61.4186 171.791 61.877C172.048 62.3354 172.22 62.8798 172.278 63.5101C172.306 63.9399 172.306 64.3696 172.278 64.8567C172.22 65.3438 172.134 65.8308 171.991 66.3466L169.871 65.7449L169.842 65.6016C170.272 65.487 170.645 65.3151 170.902 65.0286C171.16 64.7421 171.361 64.4269 171.447 64.0545C171.561 63.682 171.59 63.3096 171.561 62.9371C171.504 62.45 171.332 62.0776 171.046 61.7911C170.731 61.5046 170.415 61.39 170.014 61.4186C169.699 61.4473 169.441 61.5905 169.269 61.8197C169.097 62.0489 168.983 62.3354 168.897 62.6792C168.811 63.0231 168.725 63.3669 168.639 63.768C168.582 64.0831 168.496 64.3696 168.41 64.6848C168.324 64.9713 168.181 65.2578 168.037 65.487C167.894 65.7162 167.694 65.9454 167.464 66.0887C167.235 66.2606 166.92 66.3466 166.548 66.4039C166.118 66.4325 165.745 66.3752 165.344 66.1746C164.972 65.9741 164.657 65.6589 164.399 65.2578C164.141 64.8281 163.998 64.3123 163.912 63.7107C163.883 63.3955 163.883 63.0231 163.912 62.6219C163.94 62.2208 163.998 61.8484 164.084 61.5619L166.003 61.9057L166.032 62.0776C165.516 62.2495 165.144 62.536 164.886 62.9658C164.628 63.3669 164.542 63.7966 164.571 64.2264C164.599 64.6562 164.771 64.9713 165.029 65.2005C165.287 65.4297 165.602 65.5157 165.917 65.487C166.232 65.4584 166.462 65.3151 166.605 65.0859C166.748 64.8567 166.891 64.5702 166.977 64.1977C167.063 63.8539 167.149 63.4815 167.235 63.109C167.321 62.7079 167.436 62.3354 167.579 61.963C167.722 61.5905 167.923 61.2754 168.209 61.0175C168.496 60.7596 168.868 60.6164 169.327 60.5591C169.9 60.4731 170.329 60.5591 170.759 60.8169Z" fill="white"/>
<path d="M169.699 53.7972C170.1 54.0551 170.415 54.3416 170.673 54.714C170.931 55.0865 171.103 55.459 171.189 55.8887C171.303 56.4331 171.246 56.9775 171.046 57.5505C170.845 58.1235 170.501 58.6105 169.985 59.0403C169.47 59.4701 168.811 59.7566 167.98 59.8998C167.178 60.0431 166.433 60.0431 165.717 59.8425C165 59.642 164.399 59.3268 163.912 58.8684C163.424 58.41 163.109 57.837 162.995 57.178C162.88 56.6336 162.937 56.1179 163.109 55.6309C163.31 55.1725 163.596 54.7713 164.026 54.4275C164.456 54.0837 164.972 53.8832 165.573 53.7686L165.917 53.7113L166.863 58.8111C166.891 58.8111 166.92 58.8111 166.948 58.7825C166.977 58.7538 167.006 58.7825 167.034 58.7538C167.751 58.6105 168.352 58.3813 168.839 58.0375C169.298 57.6937 169.642 57.3213 169.842 56.8628C170.043 56.4331 170.1 55.946 170.014 55.459C169.928 55.0005 169.728 54.5994 169.441 54.2556C169.155 53.9118 168.754 53.654 168.324 53.5107L168.381 53.2815C168.868 53.4247 169.327 53.568 169.699 53.7972ZM164.456 58.4959C164.886 58.8111 165.516 58.9257 166.318 58.8684L165.631 55.1725C165.201 55.2584 164.828 55.4017 164.513 55.6022C164.198 55.8028 163.969 56.0606 163.826 56.3758C163.682 56.6623 163.625 57.0061 163.711 57.3499C163.74 57.8083 163.997 58.1808 164.456 58.4959Z" fill="white"/>
<path d="M167.951 50.3306C168.352 50.216 168.639 50.0728 168.84 49.8722C169.04 49.6716 169.155 49.4424 169.183 49.1559L169.384 49.0986L170.129 51.9637L169.928 52.021C169.785 51.8205 169.584 51.6772 169.298 51.6199C169.011 51.5626 168.696 51.5626 168.295 51.6772L160.817 53.5968C160.473 53.6828 160.187 53.826 159.929 54.0266C159.671 54.2271 159.557 54.485 159.585 54.8574L159.356 54.9148C159.241 54.6569 159.098 54.4277 158.955 54.1985C158.812 53.9693 158.64 53.7687 158.439 53.5968C158.239 53.4249 158.067 53.253 157.838 53.1384L157.78 52.9665L167.951 50.3306Z" fill="white"/>
<path d="M168.238 47.7234C167.923 47.6374 167.608 47.6374 167.292 47.7234L161.906 49.3851L162.279 50.6171L161.734 50.789L161.333 49.5857L159.843 50.0441C159.299 50.216 158.783 50.2446 158.325 50.1587C157.866 50.0727 157.465 49.9008 157.15 49.6143C156.835 49.3278 156.634 49.0127 156.491 48.6115C156.376 48.2391 156.348 47.838 156.434 47.4655C156.52 47.093 156.72 46.8352 157.064 46.7206C157.236 46.6633 157.408 46.6633 157.551 46.7492C157.723 46.8352 157.809 46.9498 157.866 47.1503C157.924 47.3509 157.924 47.5228 157.866 47.6661C157.809 47.8093 157.723 47.9526 157.608 48.0672C157.494 48.1818 157.408 48.325 157.351 48.4396C157.293 48.5542 157.293 48.7261 157.351 48.9267C157.437 49.2132 157.666 49.3851 158.01 49.4424C158.353 49.4997 158.869 49.3565 159.528 49.0413L160.13 48.7261C160.273 48.6688 160.359 48.6115 160.474 48.5256C160.559 48.4683 160.645 48.3823 160.703 48.2964C160.76 48.2104 160.789 48.1245 160.817 48.0099L160.416 46.7206L160.961 46.5487L161.448 48.0958L166.834 46.4341C167.178 46.3195 167.464 46.1476 167.636 45.8897C167.808 45.6319 167.894 45.374 167.894 45.1161L168.095 45.0588L169.069 48.1818L168.868 48.2391C168.782 48.0099 168.553 47.838 168.238 47.7234Z" fill="white"/>
<path d="M154.37 31.9364C155.86 33.3116 155.574 35.7183 154.084 37.3228C155.574 35.7183 157.952 35.2599 159.442 36.6351C157.952 35.2599 158.238 32.8532 159.728 31.2488C158.238 32.8532 155.86 33.3116 154.37 31.9364Z" fill="white"/>
<path d="M80.394 152.786C82.944 152.786 84.7203 155.25 84.7203 158C84.7203 155.25 86.5253 152.814 89.0752 152.814C86.5253 152.814 84.749 150.35 84.749 147.6C84.749 150.35 82.944 152.814 80.394 152.786Z" fill="white"/>
<path d="M13.6665 29.6443C15.185 31.2201 15.5288 33.6268 14.0676 35.0306C15.5288 33.6268 17.9068 34.0279 19.4253 35.6037C17.9068 34.0279 17.563 31.6212 19.0242 30.2173C17.5917 31.6212 15.185 31.2201 13.6665 29.6443Z" fill="white"/>
<path d="M47.2166 21.1924C47.5891 21.9946 47.6464 22.7968 47.4172 23.6277C47.188 24.4586 46.7869 25.1748 46.1852 25.7765C45.2397 26.6933 44.151 27.3523 42.8617 27.7821L31.2868 32.0797L31.4014 31.8791C31.4873 31.7359 31.5446 31.5353 31.6019 31.2488C31.6592 30.9623 31.6592 30.6185 31.6306 30.1887C31.6019 29.759 31.4873 29.2719 31.2868 28.7275L25.1268 12.2533C24.9263 11.7089 24.6971 11.2505 24.4392 10.9067C24.21 10.5629 23.9522 10.3051 23.7516 10.1331C23.5224 9.96124 23.3505 9.81799 23.2072 9.76069L22.978 9.67474L29.4531 7.26807C29.2526 7.43997 29.138 7.69783 29.0807 7.98434C29.0234 8.27085 29.0234 8.586 29.0234 8.90116C29.052 9.21632 29.0807 9.47418 29.1093 9.70339L29.1666 10.0185L35.7276 27.7248L35.8422 27.954C35.9282 28.0972 36.0428 28.2691 36.1861 28.4983C36.3293 28.6989 36.5012 28.8994 36.7018 29.1L41.5438 27.295C42.2027 27.0658 42.7471 26.6647 43.2628 26.1776C43.6353 25.8052 43.8931 25.3467 44.0364 24.8024C44.1796 24.2294 44.0364 23.6277 43.578 22.9401C43.2915 22.5676 42.9763 22.2524 42.5752 22.0232L42.5179 21.9946C42.3173 21.88 42.1454 21.7654 42.0022 21.6221C41.8589 21.4789 41.8016 21.2783 41.8303 21.0205C41.8589 20.8486 41.9449 20.734 42.0308 20.5907C42.8044 19.7885 43.7785 19.4447 44.8959 19.5593C45.956 19.7598 46.7296 20.2755 47.2166 21.1924Z" fill="white"/>
<path d="M48.5918 5.14784C47.9042 5.34839 47.2452 5.26244 46.6149 4.91863C45.9846 4.54617 45.5835 4.03046 45.3829 3.31418C45.1824 2.62656 45.2683 1.9676 45.6121 1.33728C45.9846 0.706959 46.5003 0.305848 47.1879 0.105292C47.8755 -0.095264 48.5345 -0.00931149 49.1648 0.363149C49.7951 0.706959 50.1963 1.22267 50.3968 1.93894C50.5974 2.62656 50.5114 3.31418 50.139 3.9445C49.8238 4.54617 49.2794 4.97593 48.5918 5.14784ZM50.626 24.8023L50.7406 24.6017C50.8266 24.4585 50.9125 24.2579 50.9698 24.0001C51.0558 23.7136 51.0844 23.3698 51.0844 22.9687C51.0844 22.5389 50.9985 22.0518 50.8552 21.4788L47.7323 10.1617C47.589 9.67467 47.3598 9.27356 47.016 8.92975C46.6722 8.58594 46.2424 8.32808 45.7554 8.18482C45.7267 8.18482 45.6694 8.15617 45.6408 8.15617L46.2424 8.01292L46.529 7.92697C46.8728 7.84101 47.3025 7.66911 47.8469 7.46855C48.3626 7.268 48.9356 6.95284 49.5373 6.55173C50.139 6.12196 50.6547 5.60625 51.0558 4.97593L55.468 20.8771L55.5826 21.1636C55.6686 21.3642 55.8118 21.5934 55.9837 21.8513C56.1556 22.1091 56.3275 22.3383 56.5567 22.5675C56.7859 22.7681 57.0152 22.9113 57.273 22.9687L50.626 24.8023Z" fill="white"/>
<path d="M66.7563 3.62927C66.3552 4.08768 65.6389 5.11911 67.0714 5.74943C68.5899 6.58031 68.991 8.01285 68.9337 8.98697C68.8764 9.9611 68.7045 10.133 68.5899 10.5341L68.3321 11.1358L66.699 14.9463C66.0687 14.2587 65.2664 13.2846 64.321 11.9953C63.3755 10.706 62.4014 9.35943 61.4559 7.98419C60.5104 6.60896 59.7082 5.40562 59.0492 4.43149L58.0464 2.94165C57.8745 3.68657 57.588 4.37419 57.1583 4.97586C56.7571 5.57753 56.2987 6.12189 55.8403 6.55165C55.3533 6.98142 54.9521 7.32523 54.6083 7.55443L54.064 7.89824H54.1786C55.2386 7.84094 56.0695 8.24205 56.7285 9.10158L62.8311 17.2957C63.2895 17.9833 63.6906 18.6423 64.0058 19.3299C64.3496 20.0175 64.6075 20.5906 64.7794 21.0776L65.0372 21.7939L67.4152 15.5767L69.3922 10.9639C70.0225 9.64594 70.309 8.2707 70.2517 6.83816V6.69491C70.1657 5.94999 69.9365 5.23372 69.5354 4.5461C68.4753 2.99895 67.1574 3.14221 66.7563 3.62927Z" fill="white"/>
<path d="M104.404 20.5046H104.203C104.203 20.5046 104.203 20.5333 104.232 20.5333C104.232 20.5333 104.232 20.5619 104.26 20.5619C103.773 20.5619 103.286 20.5619 102.799 20.5619C102.054 20.5619 101.309 20.5333 100.593 20.5333C100.536 20.5333 100.45 20.5333 100.364 20.5046L97.4987 20.476L97.6706 20.3041C97.7852 20.1895 97.9284 20.0176 98.0717 19.7597C98.215 19.5018 98.3582 19.1867 98.4442 18.7569C98.5588 18.3272 98.6161 17.8401 98.6161 17.2384L98.6734 7.8123C98.6734 7.5258 98.6161 7.15334 98.5015 6.69492C98.4155 6.23651 98.215 5.80675 97.9284 5.40563C97.7852 5.23373 97.6419 5.09048 97.4987 4.94722C97.0403 4.57476 96.5819 4.40286 96.0661 4.40286H95.8942C95.4645 4.43151 95.0347 4.54611 94.6336 4.77532C94.0319 5.11913 93.5162 5.57754 93.0864 6.15056C92.6567 6.69492 92.3129 7.29659 92.0264 7.92691C91.6253 8.78643 91.2241 9.67461 90.8803 10.5628C90.6225 11.1644 90.3646 11.7661 90.1068 12.3678L90.0208 12.5683C89.9922 12.597 89.9922 12.6543 89.9635 12.6829C89.9349 12.7116 89.9349 12.7402 89.9062 12.7689L89.8776 16.4076C89.9062 17.0665 89.9922 17.7255 90.1641 18.3845C90.336 19.0434 90.5938 19.6451 90.9376 20.2468C91.0522 20.3614 91.1668 20.4187 91.2814 20.476H91.0809L91.1095 20.5046L91.1382 20.5333C90.6511 20.5333 90.1641 20.5333 89.677 20.5333C88.9607 20.5333 88.2158 20.5046 87.4709 20.5046C87.3849 20.5046 87.3276 20.5046 87.2417 20.476L84.3766 20.4473L84.5485 20.2754C84.6631 20.1608 84.8064 19.9889 84.9496 19.731C85.0929 19.4732 85.2361 19.158 85.3221 18.7283C85.4367 18.2985 85.494 17.8114 85.494 17.2098L85.5513 7.78365C85.5513 7.49715 85.494 7.12468 85.3794 6.66627C85.2934 6.20786 85.0929 5.7781 84.8064 5.37698C84.6918 5.20508 84.5485 5.06183 84.3766 4.91857C83.9468 4.54611 83.4598 4.37421 82.9441 4.37421H82.7722C82.3424 4.40286 81.9413 4.51746 81.5115 4.74667C80.9098 5.09048 80.3941 5.54889 79.9644 6.12191C79.5346 6.66627 79.1908 7.26794 78.9043 7.89826C78.5032 8.75778 78.1307 9.64596 77.7583 10.5341C77.6723 10.792 77.5577 11.0212 77.4431 11.2791L77.4145 17.926L77.4717 18.2699C77.5004 18.4991 77.5577 18.7569 77.6437 19.0434C77.7296 19.3586 77.8442 19.6451 78.0161 19.903C78.188 20.1895 78.3886 20.3614 78.6178 20.476L71.7129 20.4473L71.8848 20.2754C71.9994 20.1608 72.114 19.9889 72.2573 19.731C72.4006 19.4732 72.5438 19.158 72.6584 18.7569C72.773 18.3272 72.8303 17.8114 72.8303 17.2098L72.8876 5.20508C72.8876 4.68936 72.773 4.2023 72.5438 3.77254C72.3146 3.31413 71.9708 2.97031 71.541 2.68381C71.5124 2.68381 71.4837 2.65516 71.4551 2.62651L72.0567 2.65516H72.2286C72.6298 2.65516 73.1168 2.62651 73.6898 2.5692C74.2915 2.5119 74.9218 2.34 75.6094 2.11079C76.2971 1.88158 76.9274 1.50912 77.5004 0.993408L77.4431 9.76056C77.7869 8.98699 78.1594 8.18476 78.5318 7.41119C78.847 6.69492 79.2194 6.0073 79.6206 5.31968C80.0217 4.63206 80.5374 4.0304 81.1391 3.51468C81.6834 3.02762 82.3137 2.62651 83.0014 2.36865C83.2019 2.2827 83.4884 2.19674 83.9182 2.08214C84.3193 1.96754 84.7777 1.93889 85.3221 1.93889H85.5513C85.8091 1.93889 86.0957 1.99619 86.4395 2.05349C86.7833 2.11079 87.1557 2.25404 87.5568 2.4546C87.7001 2.5119 87.9006 2.65516 88.2158 2.91301C88.531 3.14222 88.8175 3.48603 89.104 3.91579C89.5051 4.54611 89.7343 5.34833 89.7916 6.35111C89.8203 6.78087 89.8489 7.43984 89.8489 8.32802C89.8776 9.21619 89.8776 10.1903 89.8489 11.2504C90.3933 9.98977 90.9663 8.72913 91.5393 7.49715C91.8545 6.78087 92.2269 6.09325 92.628 5.40563C93.0292 4.71802 93.5449 4.11635 94.1179 3.60063C94.6909 3.11357 95.3212 2.71246 95.9802 2.4546C96.1521 2.36865 96.4673 2.2827 96.897 2.16809C97.2981 2.05349 97.7565 2.02484 98.3009 2.02484H98.5015C98.7593 2.02484 99.0745 2.08214 99.4183 2.13944C99.7621 2.19674 100.135 2.34 100.536 2.54055C100.679 2.59785 100.879 2.74111 101.195 2.99897C101.481 3.22817 101.796 3.57198 102.083 4.00174C102.484 4.63206 102.713 5.43429 102.77 6.43706C102.828 7.03873 102.856 8.04151 102.856 9.41675V11.4796L102.828 13.5425L102.799 16.4935C102.799 17.1525 102.914 17.8114 103.086 18.4704C103.257 19.1294 103.515 19.731 103.859 20.3327C104.146 20.39 104.26 20.4473 104.404 20.5046Z" fill="white"/>
<path d="M120.591 5.11895C122.081 6.17903 123.199 7.52562 123.944 9.10142C124.688 10.7059 124.975 12.3676 124.86 14.0867C124.746 15.8057 124.173 17.4102 123.141 18.8427C122.11 20.3039 120.792 21.364 119.188 22.0229C117.612 22.6819 115.921 22.9398 114.174 22.7679C112.426 22.596 110.821 21.9943 109.303 20.9056C107.784 19.8168 106.667 18.4989 105.922 16.8944C105.206 15.29 104.891 13.6569 104.977 11.9092C105.091 10.1901 105.664 8.5857 106.724 7.12451C107.756 5.66332 109.074 4.60324 110.65 3.94427C112.254 3.2853 113.916 3.02744 115.663 3.1707C117.468 3.42855 119.073 4.05887 120.591 5.11895ZM114.804 18.241C117.211 18.241 119.13 17.8972 120.62 17.2096C121.852 16.6366 122.74 15.949 123.313 15.1467C124.259 13.8288 124.431 12.6255 123.858 11.5367C123.485 10.8491 122.568 10.0469 121.05 9.18737C119.56 8.29919 117.583 7.86943 115.119 7.84078C112.712 7.81213 110.793 8.15594 109.303 8.84356C108.1 9.41657 107.211 10.1042 106.638 10.8778C105.979 11.7946 105.808 12.7974 106.123 13.8861C106.467 14.9748 107.326 15.9776 108.73 16.8658C110.163 17.7826 112.168 18.241 114.804 18.241Z" fill="white"/>
<path fill-rule="evenodd" clip-rule="evenodd" d="M146.492 25.2033C145.804 24.2865 145.546 24 144.372 23.8854C144.057 23.8567 143.741 23.8854 143.426 24C143.111 24.1146 142.939 24.3152 142.853 24.6017C142.825 24.9168 142.882 25.232 143.083 25.5471C143.14 25.6331 143.168 25.719 143.197 25.805C143.512 26.6359 143.426 27.4381 142.968 28.183C142.395 28.9566 141.621 29.3863 140.676 29.415C139.73 29.4723 138.756 29.2717 137.782 28.842C136.808 28.4122 136.034 27.8679 135.404 27.2375C133.8 25.4612 132.854 23.4843 132.596 21.3641C133.083 21.4501 133.57 21.536 134.057 21.5933C135.289 21.7079 136.521 21.6793 137.696 21.4787C138.899 21.2782 139.902 20.8198 140.704 20.1321C141.421 19.5018 141.908 18.7569 142.194 17.8687C142.223 17.7828 142.252 17.6682 142.28 17.5822C142.538 16.6081 142.567 15.6053 142.395 14.5452C142.252 13.7716 141.908 13.084 141.392 12.4251C140.876 11.7661 140.275 11.2217 139.587 10.7633C138.899 10.3049 138.212 9.96109 137.553 9.73188L129.76 7.09601L128.728 6.7522L128.843 6.9241C128.929 7.03871 129.015 7.21061 129.072 7.46847C129.158 7.69767 129.187 7.98418 129.187 8.32799C129.187 8.4999 129.187 8.6718 129.158 8.84371L128.929 9.47403L124.459 22.5961C124.316 23.0259 124.116 23.3983 123.915 23.6562C123.715 23.914 123.514 24.1146 123.313 24.2579C123.113 24.4011 122.941 24.4871 122.798 24.5157L122.597 24.573L129.273 26.8364C129.072 26.6645 128.929 26.464 128.843 26.2061C128.757 25.9483 128.7 25.719 128.7 25.4612C128.7 25.2033 128.7 25.0028 128.7 24.8309L128.728 24.573L129.531 22.2236C130.161 23.8281 131.135 25.2893 132.453 26.5499C135.175 29.0139 137.753 30.1313 141.478 30.3318C142.567 30.4178 143.627 30.2745 144.63 29.9594C145.661 29.5869 146.406 28.9566 146.836 28.0684C147.237 27.1229 147.122 26.1488 146.492 25.2033ZM133.828 9.67458L135.289 10.1616C136.235 10.4768 136.98 10.9352 137.553 11.5369C138.126 12.1386 138.556 12.7975 138.785 13.5138C139.043 14.2301 139.1 14.975 139.014 15.6913C138.985 15.9778 138.899 16.2643 138.814 16.5508C138.584 17.2097 138.212 17.8114 137.668 18.3558C136.894 19.1007 135.948 19.6451 134.774 19.9602C133.714 20.2181 132.682 20.2754 131.679 20.1321C131.049 20.0175 130.963 20.0175 130.877 20.0175C130.82 20.0175 130.791 19.9889 130.619 19.9602C130.505 19.9316 130.39 19.8743 130.39 19.8743L133.599 10.4482L133.685 10.2189L133.828 9.67458Z" fill="white"/>
<path d="M118.528 11.4222C118.414 11.193 118.271 10.9638 118.07 10.7919C117.869 10.6199 117.64 10.4767 117.382 10.3621C117.124 10.2475 116.838 10.2188 116.551 10.1902C116.15 10.1902 116.007 10.3048 115.663 10.5053C115.577 10.5626 115.234 10.9065 115.176 10.9638C115.09 10.9065 114.775 10.534 114.689 10.5053C114.345 10.3048 114.259 10.1902 113.858 10.1902C113.572 10.1902 113.285 10.2475 113.027 10.3334C112.77 10.4194 112.54 10.5626 112.34 10.7632C112.139 10.9351 111.996 11.1643 111.881 11.3935C111.767 11.6227 111.709 11.9092 111.709 12.1671C111.709 12.425 111.767 12.6828 111.881 12.9407C111.967 13.1699 112.111 13.3991 112.254 13.6283C112.512 14.0007 112.884 14.3732 113.314 14.7743C114.059 15.4333 114.804 15.863 114.832 15.8917L115.033 16.0063C115.119 16.0636 115.234 16.0636 115.319 16.0063L115.52 15.8917C115.549 15.863 116.294 15.4333 117.039 14.7743C117.497 14.3732 117.869 14.0007 118.127 13.6283C118.299 13.3991 118.414 13.1699 118.528 12.9407C118.643 12.6828 118.7 12.425 118.7 12.1671C118.7 11.9092 118.643 11.6514 118.528 11.4222Z" fill="white"/>
</svg>
