<svg width="82" height="81" viewBox="0 0 82 81" fill="none" xmlns="http://www.w3.org/2000/svg">
<path d="M62.5286 8.09986C68.6238 12.3256 73.1437 17.3883 76.4976 23.6758C79.4526 29.9736 80.8222 36.7101 80.5964 43.4875C80.3706 50.2649 78.1402 56.6952 74.3041 62.7682C70.468 68.8413 64.9855 72.9648 58.6747 75.9144C52.364 78.8641 45.6034 79.8336 38.8123 79.6089C31.6122 78.9964 25.1691 76.7712 19.074 72.5454C12.9789 68.3196 8.06001 63.2671 5.10501 56.9694C2.15001 50.6717 0.780338 43.9351 1.00618 37.1577C1.23201 30.3804 3.46243 23.9501 7.29852 17.877C11.1346 11.804 16.6171 7.68051 22.9279 4.73083C29.2386 1.78116 35.9992 0.811631 42.7903 1.03631C49.5915 1.65906 56.0448 4.28236 62.5286 8.09986ZM40.3385 61.2468C49.9115 61.002 57.8585 59.6038 63.3715 56.6745C68.097 54.1637 71.6157 51.2854 73.9275 48.0397C77.3851 42.773 78.0607 37.9757 75.5554 33.6582C73.8887 30.9125 70.2173 27.8197 64.1426 24.3901C58.0678 20.9605 50.0496 19.5722 40.0675 19.4291C30.4944 19.6739 22.5475 21.0721 17.0344 24.0013C12.309 26.5122 8.79032 29.3904 6.47849 32.6362C3.77796 36.2902 3.48087 40.2811 4.78947 44.6293C6.09806 48.9774 9.78974 52.8663 15.4656 56.3061C21.5506 60.1338 29.9677 61.5119 40.3385 61.2468Z" fill="white"/>
<path d="M54.8038 33.7904C54.3846 33.0044 53.5563 31.8306 52.7483 31.4529C51.9302 30.6772 51.1223 30.2995 49.9155 29.9321C48.7087 29.5646 47.9008 29.1869 46.7041 29.2175C45.1086 29.2583 44.3211 29.6768 43.1448 30.5035C42.7459 30.5137 41.59 32.1366 41.2013 32.5449C40.7922 32.157 39.5651 30.9934 39.156 30.6055C37.939 29.84 37.53 29.4521 35.9345 29.4929C34.7378 29.5235 33.5412 29.5541 32.7638 30.3706C31.5773 30.7993 30.7898 31.2178 30.0124 32.0343C29.235 32.8508 28.4576 33.6674 28.0791 34.4737C27.7005 35.2801 27.3322 36.4845 27.3628 37.6787C27.3933 38.8729 27.8125 39.6588 28.2419 40.8428C28.6612 41.6288 29.0906 42.8128 29.9087 43.5885C31.146 45.1502 32.3834 46.7119 34.4185 48.2531C37.2819 50.9682 40.5136 52.4789 40.5136 52.4789L41.3215 52.8566C41.7306 53.2445 42.1295 53.2343 42.5182 52.826L43.3057 52.4075C43.3057 52.4075 46.4458 50.3356 49.1769 47.8758C51.1306 46.2325 52.2865 44.6096 53.4526 43.3848C54.23 42.5683 54.5983 41.3639 54.9768 40.5575C55.3452 39.3531 55.7237 38.5468 55.6932 37.3526C55.2536 35.7705 55.223 34.5763 54.8038 33.7904Z" fill="white"/>
</svg>
