<svg width="22" height="19" viewBox="0 0 22 19" fill="none" xmlns="http://www.w3.org/2000/svg">
<path d="M21.379 3.84578C21.0242 3.11325 20.5807 2.38072 19.9597 1.83133C19.3387 1.28193 18.629 0.824096 17.8307 0.457831C17.0323 0.0915663 16.1452 0 15.2581 0C14.0161 0 13.4839 0.366264 12.4194 1.00723C12.1532 1.19036 11.0887 2.28915 10.8226 2.47229C10.5565 2.28915 9.49193 1.09879 9.22581 1.00723C8.16129 0.366264 7.89517 0 6.65323 0C5.76613 0 4.87904 0.183133 4.08065 0.457831C3.28227 0.73253 2.57259 1.28193 1.95162 1.83133C1.33066 2.38072 0.798393 3.11325 0.532264 3.84578C0.177425 4.66988 0 5.49397 0 6.31807C0 7.14217 0.177425 7.96626 0.532264 8.88193C0.798393 9.61446 1.24194 10.347 1.77419 11.0795C2.57258 12.2699 3.7258 13.5518 5.14515 14.8337C7.54032 16.9398 9.84679 18.4048 9.9355 18.4964L10.5565 18.8626C10.8226 19.0458 11.1774 19.0458 11.4435 18.8626L12.0645 18.4964C12.1532 18.4048 14.4597 16.9398 16.8548 14.8337C18.2742 13.5518 19.4274 12.2699 20.2258 11.0795C20.7581 10.347 21.2016 9.52289 21.4678 8.88193C21.8226 7.96626 22 7.14217 22 6.31807C21.9113 5.49397 21.7339 4.66988 21.379 3.84578Z" fill="white"/>
</svg>
