<svg width="125" height="32" viewBox="0 0 125 32" fill="none" xmlns="http://www.w3.org/2000/svg">
<path d="M24.2977 21.0683C24.696 21.8634 24.696 22.6584 24.4968 23.5528C24.2977 24.3478 23.8994 25.0435 23.3019 25.7391C22.4056 26.6336 21.2107 27.3292 20.0157 27.7267L8.26519 32L8.36477 31.7019C8.46436 31.6025 8.46436 31.3044 8.56394 31.1056C8.56394 30.8075 8.66352 30.5093 8.56394 30.0124C8.56394 29.6149 8.36477 29.118 8.16561 28.5218L2.19077 12.1242C1.99161 11.5279 1.79245 11.1304 1.49371 10.8323C1.29455 10.5342 0.995807 10.236 0.796645 10.0373C0.597484 9.83851 0.398323 9.73913 0.199161 9.63975L0 9.54037L6.47274 7.15527C6.27358 7.35403 6.174 7.55279 6.174 7.85093C6.07442 8.24844 6.07442 8.54658 6.07442 8.84472C6.07442 9.14285 6.07442 9.44099 6.174 9.63975L6.27358 9.93789L12.8459 27.6273L12.9455 27.8261C13.0451 27.9255 13.1446 28.1242 13.2442 28.323C13.3438 28.5218 13.543 28.7205 13.7421 28.9193L18.6216 27.1305C19.3186 26.9317 19.8165 26.5342 20.3145 26.0373C20.7128 25.6398 20.9119 25.2423 21.1111 24.646C21.2107 24.0497 21.1111 23.4534 20.6132 22.7578C20.3145 22.3603 20.0157 22.0621 19.6174 21.8634H19.5178C19.3186 21.764 19.1195 21.6646 19.0199 21.4659C18.9203 21.3665 18.9203 21.1677 18.9203 20.8696C18.9203 20.6708 19.0199 20.5714 19.1195 20.4721C19.9161 19.677 20.9119 19.2795 22.0073 19.4783C23.0031 19.677 23.7998 20.1739 24.2977 21.0683Z" fill="white"/>
<path d="M25.6918 5.06833C24.9947 5.26709 24.2977 5.16771 23.7002 4.86957C23.1027 4.47206 22.7044 3.97516 22.5052 3.27951C22.3061 2.58385 22.4056 1.8882 22.7044 1.29193C23.1027 0.695653 23.6006 0.198758 24.2977 0.099379C24.9947 -0.099379 25.6918 0 26.2893 0.397516C26.8868 0.795032 27.2851 1.29193 27.4843 1.98758C27.6834 2.68323 27.5838 3.37889 27.2851 3.97516C26.8868 4.47205 26.3889 4.86957 25.6918 5.06833ZM27.6834 24.646L27.783 24.4472C27.8826 24.3479 27.9822 24.1491 27.9822 23.851C28.0817 23.5528 28.0817 23.2547 28.0817 22.8572C28.0817 22.4597 27.9822 21.9628 27.8826 21.3665L24.696 10.0373C24.5964 9.54038 24.2977 9.14287 23.9989 8.84473C23.6006 8.44722 23.2023 8.24846 22.7044 8.14908H22.6048L23.3019 7.85094H23.6006C23.8994 7.75156 24.3973 7.65218 24.8952 7.35405C25.3931 7.15529 25.9906 6.85715 26.588 6.45964C27.1855 6.06212 27.6834 5.56522 28.0817 4.86957L32.4633 20.7702L32.5629 21.0683C32.6625 21.2671 32.762 21.4659 32.9612 21.764C33.1604 22.0621 33.3595 22.2609 33.5587 22.4597C33.7578 22.6584 34.0566 22.7578 34.2557 22.8572L27.6834 24.646Z" fill="white"/>
<path d="M43.9151 3.47818C43.5167 3.97508 42.8197 4.96887 44.2138 5.56514C45.7075 6.45955 46.1058 7.85086 46.1058 8.84465C46.0062 9.83844 45.9067 10.0372 45.8071 10.4347L45.5083 11.031L43.8155 14.8074C43.218 14.1117 42.4213 13.1179 41.4255 11.826C40.4297 10.5341 39.5335 9.14279 38.5377 7.85086C37.5419 6.45956 36.7452 5.26701 36.1478 4.27322L35.152 2.78253C34.9528 3.57756 34.6541 4.17384 34.2557 4.86949C33.8574 5.46576 33.3595 5.96266 32.9612 6.45956C32.4633 6.85707 32.065 7.25459 31.7662 7.45335L31.2683 7.85086H31.3679C32.4633 7.75148 33.2599 8.149 33.957 9.04341L40.0314 17.2919C40.5293 17.9875 40.9276 18.6832 41.2264 19.3788C41.5251 20.0745 41.8239 20.6708 42.023 21.0683L42.3218 21.7639L44.7117 15.6024L46.7033 11.031C47.3008 9.73906 47.5995 8.34776 47.5995 6.85707V6.75769C47.5 5.96266 47.3008 5.26701 46.9025 4.57135C45.6079 2.88191 44.3134 2.98129 43.9151 3.47818Z" fill="white"/>
<path d="M81.5566 20.3728H81.3575C80.8596 20.3728 80.3617 20.3728 79.8638 20.3728C79.1667 20.3728 78.37 20.3728 77.673 20.3728C77.5734 20.3728 77.5734 20.3728 77.4738 20.3728H74.586L74.7851 20.174C74.8847 20.0746 75.0839 19.8759 75.1835 19.5777C75.283 19.2796 75.4822 18.9814 75.5818 18.5839C75.6814 18.1864 75.7809 17.6895 75.7809 17.0932L75.8805 7.65224C75.8805 7.35411 75.7809 6.95659 75.6814 6.55907C75.5818 6.06218 75.3826 5.66466 75.0839 5.26715C74.9843 5.06839 74.8847 4.96901 74.6856 4.86963C74.2872 4.47211 73.7893 4.37274 73.2914 4.27336H73.0923C72.6939 4.27336 72.196 4.47211 71.7977 4.67087C71.2002 4.96901 70.7023 5.4659 70.304 6.06218C69.9057 6.65845 69.5074 7.15535 69.2086 7.851C68.8103 8.74541 68.412 9.63982 68.1132 10.4349C67.9141 11.0311 67.6153 11.6274 67.3166 12.2237L67.217 12.4224V12.5218V12.6212V16.2982C67.217 16.9939 67.3166 17.5901 67.5158 18.2858C67.7149 18.9814 67.9141 19.5777 68.3124 20.174C68.412 20.2734 68.5116 20.3728 68.7107 20.3728H68.5116C68.0137 20.3728 67.5158 20.3728 67.0179 20.3728C66.3208 20.3728 65.5241 20.3728 64.8271 20.3728C64.7275 20.3728 64.6279 20.3728 64.6279 20.3728H61.7401L61.9392 20.174C62.0388 20.0746 62.238 19.8759 62.3376 19.5777C62.4371 19.2796 62.6363 18.9814 62.7359 18.5839C62.8355 18.1864 62.935 17.6895 62.935 17.0932L62.7359 7.65224C62.7359 7.35411 62.6363 6.95659 62.5367 6.55907C62.4371 6.06218 62.238 5.66466 61.9392 5.26715C61.9392 5.06839 61.7401 4.86963 61.6405 4.77025C61.2422 4.37274 60.7443 4.27336 60.2464 4.17398H60.0472C59.6489 4.17398 59.2506 4.37274 58.7527 4.57149C58.1552 4.86963 57.6573 5.36653 57.2589 5.9628C56.8606 6.55907 56.4623 7.05597 56.1636 7.75162C55.7652 8.64603 55.3669 9.54044 55.0682 10.3355C54.9686 10.6336 54.869 10.8324 54.7694 11.0311V17.6895L54.869 17.9877C54.869 18.1864 54.9686 18.4846 55.0682 18.7827C55.1677 19.0808 55.2673 19.379 55.4665 19.6771C55.6657 19.9752 55.8648 20.174 56.064 20.2734H49.0933L49.2925 20.0746C49.3921 19.9752 49.4917 19.7765 49.6908 19.5777C49.7904 19.2796 49.9896 18.9814 50.0891 18.5839C50.1887 18.1864 50.2883 17.6895 50.2883 16.9939L50.3879 4.96901C50.3879 4.47211 50.2883 3.97522 49.9896 3.5777C49.7904 3.08081 49.3921 2.78267 48.9937 2.48453H48.8942H49.4917H49.6908C50.0891 2.48453 50.587 2.48453 51.1845 2.38516C51.782 2.28578 52.4791 2.1864 53.0766 1.88826C53.5745 1.6895 54.1719 1.39137 54.7694 0.89447V9.63982C55.0682 8.84479 55.4665 8.04976 55.7652 7.25473C56.064 6.55907 56.4623 5.86342 56.8606 5.16777C57.2589 4.47211 57.7568 3.87584 58.3543 3.37895C58.9518 2.88205 59.5493 2.48453 60.2464 2.1864C60.4455 2.1864 60.7443 2.08702 61.1426 1.88826C61.5409 1.78888 62.0388 1.6895 62.5367 1.6895H62.7359C63.0346 1.6895 63.3334 1.6895 63.6321 1.78888C64.0304 1.88826 64.3292 1.98764 64.7275 2.1864C64.8271 2.28578 65.1258 2.38516 65.4246 2.68329C65.7233 2.88205 66.022 3.27957 66.3208 3.67708C66.7191 4.27336 66.9183 5.06839 67.0179 6.06218C67.0179 6.45969 67.1174 7.15535 67.1174 8.04976C67.1174 8.94417 67.1174 9.93796 67.1174 10.9318C67.6153 9.63982 68.2128 8.44727 68.8103 7.15535C69.109 6.45969 69.5074 5.76404 69.9057 5.06839C70.304 4.37274 70.8019 3.77646 71.3994 3.27957C71.9969 2.78267 72.5944 2.38516 73.2914 2.08702C73.4906 1.98764 73.7893 1.88826 74.1877 1.78888C74.6856 1.88826 75.0839 1.88826 75.6814 1.88826H75.8805C76.1793 1.88826 76.478 1.88826 76.7768 1.98764C77.1751 2.08702 77.4738 2.1864 77.8721 2.38516C77.9717 2.48453 78.2705 2.58391 78.5692 2.88205C78.8679 3.08081 79.1667 3.47832 79.4654 3.87584C79.8638 4.47211 80.0629 5.26715 80.1625 6.26094C80.2621 6.85721 80.2621 7.851 80.2621 9.24231V11.3293V13.4162V16.3976C80.2621 17.0932 80.3617 17.6895 80.5608 18.3852C80.76 19.0808 80.9591 19.6771 81.3575 20.2734C81.3575 20.2734 81.457 20.3728 81.5566 20.3728Z" fill="white"/>
<path d="M97.8878 4.96896C99.3816 6.06213 100.477 7.35405 101.274 8.94412C101.971 10.5342 102.269 12.2236 102.17 13.9131C102.07 15.6025 101.473 17.1926 100.477 18.6833C99.4811 20.1739 98.087 21.1677 96.4937 21.8634C94.9004 22.559 93.2076 22.7578 91.5147 22.6584C89.7222 22.4597 88.1289 21.8634 86.6352 20.7702C85.1415 19.6771 83.9466 18.3851 83.2495 16.7951C82.5524 15.205 82.2537 13.5156 82.3533 11.8261C82.4528 10.1367 83.0503 8.5466 84.0461 7.05592C85.0419 5.56523 86.4361 4.57144 88.0294 3.87579C89.6227 3.18014 91.3155 2.98138 93.0084 3.08076C94.7013 3.27951 96.2946 3.97517 97.8878 4.96896ZM92.0126 18.087C94.4025 18.087 96.3941 17.7888 97.7883 17.0932C98.9832 16.4969 99.8795 15.8013 100.477 15.0062C101.373 13.7143 101.572 12.5218 100.975 11.4286C100.577 10.7329 99.6803 9.93791 98.1866 9.0435C96.6929 8.14909 94.7013 7.75157 92.2118 7.65219C89.8218 7.65219 87.8302 7.95033 86.4361 8.64598C85.2411 9.24225 84.3449 9.93791 83.7474 10.7329C83.0503 11.6274 82.9508 12.6211 83.2495 13.7143C83.5482 14.8075 84.4445 15.8013 85.8386 16.6957C87.3323 17.6895 89.4235 18.087 92.0126 18.087Z" fill="white"/>
<path fill-rule="evenodd" clip-rule="evenodd" d="M123.779 25.0436C123.082 24.1492 122.783 23.851 121.688 23.7516C121.389 23.7516 121.09 23.7516 120.791 23.851C120.493 23.9504 120.293 24.1492 120.194 24.4473C120.194 24.7454 120.194 25.0436 120.393 25.4411C120.393 25.5405 120.493 25.6398 120.493 25.7392C120.791 26.6336 120.692 27.3293 120.293 28.1243C119.696 28.9193 118.999 29.3169 118.003 29.3169C117.007 29.4162 116.111 29.2175 115.115 28.7206C114.119 28.3231 113.323 27.7268 112.725 27.1305C111.132 25.3417 110.136 23.3541 109.937 21.2672C110.435 21.3665 110.933 21.4659 111.431 21.4659C112.626 21.5653 113.92 21.5653 115.115 21.3665C116.31 21.1678 117.306 20.6709 118.103 20.0746C118.8 19.4783 119.298 18.6833 119.596 17.7889C119.596 17.6895 119.696 17.5901 119.696 17.4908C119.995 16.497 119.995 15.5032 119.796 14.5094C119.696 13.7144 119.298 13.0187 118.8 12.4224C118.302 11.8262 117.704 11.2299 117.007 10.733C116.31 10.2361 115.613 9.93795 114.916 9.7392L107.049 7.05596L106.053 6.65845L106.153 6.85721C106.253 6.95658 106.352 7.15534 106.352 7.3541C106.452 7.55286 106.452 7.85099 106.452 8.24851C106.452 8.44727 106.452 8.54665 106.452 8.74541L106.253 9.34168L101.771 22.4597C101.572 22.8572 101.473 23.2547 101.174 23.5529C100.975 23.851 100.776 24.0498 100.576 24.1492C100.377 24.2485 100.178 24.3479 100.079 24.4473L99.8794 24.5467L106.551 26.733C106.352 26.5342 106.153 26.3355 106.153 26.1367C106.053 25.938 106.053 25.6398 106.053 25.4411C106.053 25.1429 106.053 24.9442 106.053 24.8448V24.5467L106.85 22.1616C107.448 23.7516 108.443 25.2423 109.738 26.5342C112.526 29.0187 115.016 30.1119 118.8 30.3106C119.895 30.41 120.99 30.3107 121.986 29.9131C122.982 29.5156 123.779 28.9193 124.177 28.0249C124.575 27.0311 124.476 26.0374 123.779 25.0436ZM111.132 9.54044L112.626 10.0373C113.522 10.3355 114.319 10.8324 114.916 11.4286C115.514 12.0249 115.912 12.7206 116.111 13.4162C116.31 14.1119 116.41 14.9069 116.31 15.6026C116.31 15.9007 116.211 16.1988 116.111 16.497C115.912 17.1926 115.514 17.7889 114.916 18.2858C114.119 19.0808 113.223 19.5777 112.028 19.8759C110.933 20.174 109.937 20.174 108.941 20.0746C108.344 19.9752 108.244 19.9752 108.145 19.9752C108.045 19.9752 108.045 19.9752 107.945 19.8759C107.846 19.8759 107.746 19.7765 107.746 19.7765L110.933 10.3355L111.032 10.1367L111.132 9.54044Z" fill="white"/>
<path d="M95.7966 11.3292C95.697 11.1304 95.4979 10.8323 95.2987 10.7329C95.0995 10.5342 94.9004 10.4348 94.6016 10.3354C94.3029 10.236 94.1037 10.1367 93.805 10.1367C93.4067 10.1367 93.2075 10.236 92.9088 10.4348C92.8092 10.4348 92.5104 10.8323 92.4109 10.9317C92.3113 10.8323 92.0125 10.5342 91.913 10.4348C91.6142 10.236 91.5146 10.1367 91.1163 10.1367C90.8176 10.1367 90.5188 10.1367 90.3197 10.3354C90.0209 10.4348 89.8218 10.5342 89.6226 10.7329C89.4234 10.9317 89.2243 11.1304 89.1247 11.3292C89.0251 11.528 88.9255 11.8261 88.9255 12.1242C88.9255 12.4224 89.0251 12.6211 89.1247 12.9193C89.2243 13.118 89.3239 13.4162 89.523 13.6149C89.8218 14.0124 90.1205 14.41 90.6184 14.8075C91.3155 15.5031 92.1121 15.9006 92.1121 15.9006L92.3113 16C92.4109 16.0994 92.5104 16.0994 92.61 16L92.8092 15.9006C92.8092 15.9006 93.6058 15.4037 94.3029 14.8075C94.8008 14.41 95.0995 14.0124 95.3983 13.7143C95.5974 13.5155 95.697 13.2174 95.7966 13.0186C95.8962 12.7205 95.9958 12.5218 95.9958 12.2236C95.8962 11.8261 95.8962 11.528 95.7966 11.3292Z" fill="white"/>
</svg>
