<svg width="125" height="32" viewBox="0 0 125 32" fill="none" xmlns="http://www.w3.org/2000/svg">
<path d="M24.2977 21.0683C24.696 21.8634 24.696 22.6584 24.4968 23.5528C24.2977 24.3478 23.8994 25.0435 23.3019 25.7391C22.4056 26.6336 21.2107 27.3292 20.0157 27.7267L8.26519 32L8.36477 31.7019C8.46436 31.6025 8.46436 31.3044 8.56394 31.1056C8.56394 30.8075 8.66352 30.5093 8.56394 30.0124C8.56394 29.6149 8.36477 29.118 8.16561 28.5218L2.19077 12.1242C1.99161 11.5279 1.79245 11.1304 1.49371 10.8323C1.29455 10.5342 0.995807 10.236 0.796645 10.0373C0.597484 9.83851 0.398323 9.73913 0.199161 9.63975L0 9.54037L6.47274 7.15527C6.27358 7.35403 6.174 7.55279 6.174 7.85093C6.07442 8.24844 6.07442 8.54658 6.07442 8.84472C6.07442 9.14285 6.07442 9.44099 6.174 9.63975L6.27358 9.93789L12.8459 27.6273L12.9455 27.8261C13.0451 27.9255 13.1446 28.1242 13.2442 28.323C13.3438 28.5218 13.543 28.7205 13.7421 28.9193L18.6216 27.1305C19.3186 26.9317 19.8165 26.5342 20.3145 26.0373C20.7128 25.6398 20.9119 25.2423 21.1111 24.646C21.2107 24.0497 21.1111 23.4534 20.6132 22.7578C20.3145 22.3603 20.0157 22.0621 19.6174 21.8634H19.5178C19.3186 21.764 19.1195 21.6646 19.0199 21.4659C18.9203 21.3665 18.9203 21.1677 18.9203 20.8696C18.9203 20.6708 19.0199 20.5714 19.1195 20.4721C19.9161 19.677 20.9119 19.2795 22.0073 19.4783C23.0031 19.677 23.7998 20.1739 24.2977 21.0683Z" fill="white"/>
<path d="M25.6916 5.06833C24.9945 5.26709 24.2974 5.16771 23.6999 4.86957C23.1025 4.47206 22.7041 3.97516 22.505 3.27951C22.3058 2.58385 22.4054 1.8882 22.7041 1.29193C23.1025 0.695653 23.6004 0.198758 24.2974 0.099379C24.9945 -0.099379 25.6916 0 26.289 0.397516C26.8865 0.795032 27.2849 1.29193 27.484 1.98758C27.6832 2.68323 27.5836 3.37889 27.2849 3.97516C26.8865 4.47205 26.3886 4.86957 25.6916 5.06833ZM27.6832 24.646L27.7828 24.4472C27.8823 24.3479 27.9819 24.1491 27.9819 23.851C28.0815 23.5528 28.0815 23.2547 28.0815 22.8572C28.0815 22.4597 27.9819 21.9628 27.8823 21.3665L24.6958 10.0373C24.5962 9.54038 24.2974 9.14287 23.9987 8.84473C23.6004 8.44722 23.202 8.24846 22.7041 8.14908H22.6046L23.3016 7.85094H23.6004C23.8991 7.75156 24.397 7.65218 24.8949 7.35405C25.3928 7.15529 25.9903 6.85715 26.5878 6.45964C27.1853 6.06212 27.6832 5.56522 28.0815 4.86957L32.463 20.7702L32.5626 21.0683C32.6622 21.2671 32.7618 21.4659 32.9609 21.764C33.1601 22.0621 33.3593 22.2609 33.5584 22.4597C33.7576 22.6584 34.0563 22.7578 34.2555 22.8572L27.6832 24.646Z" fill="white"/>
<path d="M43.9153 3.47812C43.517 3.97502 42.8199 4.96881 44.214 5.56508C45.7077 6.45949 46.1061 7.8508 46.1061 8.84459C46.0065 9.83838 45.9069 10.0371 45.8073 10.4347L45.5086 11.0309L43.8157 14.8073C43.2182 14.1117 42.4216 13.1179 41.4258 11.826C40.43 10.534 39.5337 9.14273 38.5379 7.8508C37.5421 6.45949 36.7455 5.26695 36.148 4.27316L35.1522 2.78247C34.953 3.5775 34.6543 4.17378 34.256 4.86943C33.8577 5.4657 33.3597 5.9626 32.9614 6.45949C32.4635 6.85701 32.0652 7.25453 31.7665 7.45328L31.2686 7.8508H31.3681C32.4635 7.75142 33.2602 8.14894 33.9572 9.04335L40.0317 17.2918C40.5296 17.9875 40.9279 18.6831 41.2266 19.3788C41.5254 20.0744 41.8241 20.6707 42.0233 21.0682L42.322 21.7639L44.7119 15.6024L46.7036 11.0309C47.301 9.739 47.5998 8.3477 47.5998 6.85701V6.75763C47.5002 5.9626 47.301 5.26695 46.9027 4.57129C45.6082 2.88185 44.3136 2.98123 43.9153 3.47812Z" fill="white"/>
<path d="M81.557 20.3728H81.3578C80.8599 20.3728 80.362 20.3728 79.8641 20.3728C79.1671 20.3728 78.3704 20.3728 77.6733 20.3728C77.5738 20.3728 77.5738 20.3728 77.4742 20.3728H74.5863L74.7855 20.1741C74.8851 20.0747 75.0842 19.8759 75.1838 19.5778C75.2834 19.2796 75.4826 18.9815 75.5822 18.584C75.6817 18.1865 75.7813 17.6896 75.7813 17.0933L75.8809 7.6523C75.8809 7.35417 75.7813 6.95665 75.6817 6.55913C75.5822 6.06224 75.383 5.66472 75.0842 5.26721C74.9847 5.06845 74.8851 4.96907 74.6859 4.86969C74.2876 4.47218 73.7897 4.3728 73.2918 4.27342H73.0926C72.6943 4.27342 72.1964 4.47218 71.7981 4.67093C71.2006 4.96907 70.7027 5.46597 70.3044 6.06224C69.9061 6.65851 69.5077 7.15541 69.209 7.85106C68.8107 8.74547 68.4123 9.63988 68.1136 10.4349C67.9144 11.0312 67.6157 11.6275 67.317 12.2237L67.2174 12.4225V12.5219V12.6213V16.2983C67.2174 16.9939 67.317 17.5902 67.5161 18.2859C67.7153 18.9815 67.9144 19.5778 68.3128 20.1741C68.4123 20.2734 68.5119 20.3728 68.7111 20.3728H68.5119C68.014 20.3728 67.5161 20.3728 67.0182 20.3728C66.3212 20.3728 65.5245 20.3728 64.8274 20.3728C64.7279 20.3728 64.6283 20.3728 64.6283 20.3728H61.7404L61.9396 20.1741C62.0392 20.0747 62.2383 19.8759 62.3379 19.5778C62.4375 19.2796 62.6367 18.9815 62.7362 18.584C62.8358 18.1865 62.9354 17.6896 62.9354 17.0933L62.7362 7.6523C62.7362 7.35417 62.6367 6.95665 62.5371 6.55913C62.4375 6.06224 62.2383 5.66472 61.9396 5.26721C61.9396 5.06845 61.7404 4.86969 61.6409 4.77031C61.2425 4.3728 60.7446 4.27342 60.2467 4.17404H60.0476C59.6492 4.17404 59.2509 4.3728 58.753 4.57155C58.1555 4.86969 57.6576 5.36659 57.2593 5.96286C56.861 6.55913 56.4627 7.05603 56.1639 7.75168C55.7656 8.64609 55.3673 9.5405 55.0685 10.3355C54.969 10.6337 54.8694 10.8324 54.7698 11.0312V17.6896L54.8694 17.9877C54.8694 18.1865 54.969 18.4846 55.0685 18.7828C55.1681 19.0809 55.2677 19.379 55.4669 19.6772C55.666 19.9753 55.8652 20.1741 56.0643 20.2734H49.0937L49.2929 20.0747C49.3924 19.9753 49.492 19.7765 49.6912 19.5778C49.7908 19.2796 49.9899 18.9815 50.0895 18.584C50.1891 18.1865 50.2887 17.6896 50.2887 16.9939L50.3882 4.96907C50.3882 4.47218 50.2887 3.97528 49.9899 3.57776C49.7908 3.08087 49.3924 2.78273 48.9941 2.4846H48.8945H49.492H49.6912C50.0895 2.4846 50.5874 2.4846 51.1849 2.38522C51.7824 2.28584 52.4794 2.18646 53.0769 1.88832C53.5748 1.68956 54.1723 1.39143 54.7698 0.894531V9.63988C55.0685 8.84485 55.4669 8.04982 55.7656 7.25479C56.0643 6.55913 56.4627 5.86348 56.861 5.16783C57.2593 4.47218 57.7572 3.8759 58.3547 3.37901C58.9522 2.88211 59.5497 2.4846 60.2467 2.18646C60.4459 2.18646 60.7446 2.08708 61.143 1.88832C61.5413 1.78894 62.0392 1.68956 62.5371 1.68956H62.7362C63.035 1.68956 63.3337 1.68956 63.6325 1.78894C64.0308 1.88832 64.3295 1.9877 64.7279 2.18646C64.8274 2.28584 65.1262 2.38522 65.4249 2.68335C65.7237 2.88211 66.0224 3.27963 66.3211 3.67714C66.7195 4.27342 66.9186 5.06845 67.0182 6.06224C67.0182 6.45976 67.1178 7.15541 67.1178 8.04982C67.1178 8.94423 67.1178 9.93802 67.1178 10.9318C67.6157 9.63988 68.2132 8.44734 68.8107 7.15541C69.1094 6.45976 69.5077 5.7641 69.906 5.06845C70.3044 4.3728 70.8023 3.77652 71.3998 3.27963C71.9972 2.78273 72.5947 2.38522 73.2918 2.08708C73.491 1.9877 73.7897 1.88832 74.188 1.78894C74.6859 1.88832 75.0842 1.88832 75.6817 1.88832H75.8809C76.1796 1.88832 76.4784 1.88832 76.7771 1.9877C77.1754 2.08708 77.4742 2.18646 77.8725 2.38522C77.9721 2.4846 78.2708 2.58397 78.5696 2.88211C78.8683 3.08087 79.1671 3.47839 79.4658 3.8759C79.8641 4.47218 80.0633 5.26721 80.1629 6.261C80.2624 6.85727 80.2624 7.85106 80.2624 9.24237V11.3293V13.4163V16.3977C80.2624 17.0933 80.362 17.6896 80.5612 18.3852C80.7603 19.0809 80.9595 19.6772 81.3578 20.2734C81.3578 20.2734 81.4574 20.3728 81.557 20.3728Z" fill="white"/>
<path d="M97.8882 4.96884C99.3819 6.062 100.477 7.35393 101.274 8.944C101.971 10.5341 102.27 12.2235 102.17 13.9129C102.071 15.6024 101.473 17.1925 100.477 18.6831C99.4815 20.1738 98.0874 21.1676 96.4941 21.8633C94.9008 22.5589 93.2079 22.7577 91.5151 22.6583C89.7226 22.4595 88.1293 21.8633 86.6356 20.7701C85.1419 19.6769 83.9469 18.385 83.2499 16.7949C82.5528 15.2049 82.2541 13.5154 82.3536 11.826C82.4532 10.1365 83.0507 8.54648 84.0465 7.05579C85.0423 5.56511 86.4364 4.57132 88.0297 3.87567C89.623 3.18001 91.3159 2.98126 93.0088 3.08063C94.7016 3.27939 96.2949 3.97505 97.8882 4.96884ZM92.013 18.0869C94.4029 18.0869 96.3945 17.7887 97.7886 17.0931C98.9836 16.4968 99.8798 15.8011 100.477 15.0061C101.374 13.7142 101.573 12.5216 100.975 11.4285C100.577 10.7328 99.6807 9.93779 98.187 9.04337C96.6932 8.14896 94.7016 7.75145 92.2121 7.65207C89.8222 7.65207 87.8306 7.95021 86.4364 8.64586C85.2415 9.24213 84.3452 9.93779 83.7478 10.7328C83.0507 11.6272 82.9511 12.621 83.2499 13.7142C83.5486 14.8074 84.4448 15.8011 85.839 16.6956C87.3327 17.6893 89.4239 18.0869 92.013 18.0869Z" fill="white"/>
<path fill-rule="evenodd" clip-rule="evenodd" d="M123.778 25.0436C123.081 24.1492 122.782 23.851 121.687 23.7516C121.388 23.7516 121.09 23.7516 120.791 23.851C120.492 23.9504 120.293 24.1492 120.193 24.4473C120.193 24.7454 120.193 25.0436 120.393 25.4411C120.393 25.5405 120.492 25.6398 120.492 25.7392C120.791 26.6336 120.691 27.3293 120.293 28.1243C119.695 28.9193 118.998 29.3169 118.003 29.3169C117.007 29.4162 116.111 29.2175 115.115 28.7206C114.119 28.3231 113.322 27.7268 112.725 27.1305C111.132 25.3417 110.136 23.3541 109.937 21.2672C110.434 21.3665 110.932 21.4659 111.43 21.4659C112.625 21.5653 113.92 21.5653 115.115 21.3665C116.31 21.1678 117.306 20.6709 118.102 20.0746C118.799 19.4783 119.297 18.6833 119.596 17.7889C119.596 17.6895 119.695 17.5901 119.695 17.4908C119.994 16.497 119.994 15.5032 119.795 14.5094C119.695 13.7144 119.297 13.0187 118.799 12.4224C118.301 11.8262 117.704 11.2299 117.007 10.733C116.31 10.2361 115.613 9.93795 114.916 9.7392L107.049 7.05596L106.053 6.65845L106.152 6.85721C106.252 6.95658 106.352 7.15534 106.352 7.3541C106.451 7.55286 106.451 7.85099 106.451 8.24851C106.451 8.44727 106.451 8.54665 106.451 8.74541L106.252 9.34168L101.771 22.4597C101.572 22.8572 101.472 23.2547 101.173 23.5529C100.974 23.851 100.775 24.0498 100.576 24.1492C100.377 24.2485 100.178 24.3479 100.078 24.4473L99.8789 24.5467L106.551 26.733C106.352 26.5342 106.152 26.3355 106.152 26.1367C106.053 25.938 106.053 25.6398 106.053 25.4411C106.053 25.1429 106.053 24.9442 106.053 24.8448V24.5467L106.85 22.1616C107.447 23.7516 108.443 25.2423 109.737 26.5342C112.526 29.0187 115.015 30.1119 118.799 30.3106C119.895 30.41 120.99 30.3107 121.986 29.9131C122.982 29.5156 123.778 28.9193 124.177 28.0249C124.575 27.0311 124.475 26.0374 123.778 25.0436ZM111.132 9.54044L112.625 10.0373C113.521 10.3355 114.318 10.8324 114.916 11.4286C115.513 12.0249 115.911 12.7206 116.111 13.4162C116.31 14.1119 116.409 14.9069 116.31 15.6026C116.31 15.9007 116.21 16.1988 116.111 16.497C115.911 17.1926 115.513 17.7889 114.916 18.2858C114.119 19.0808 113.223 19.5777 112.028 19.8759C110.932 20.174 109.937 20.174 108.941 20.0746C108.343 19.9752 108.244 19.9752 108.144 19.9752C108.045 19.9752 108.045 19.9752 107.945 19.8759C107.845 19.8759 107.746 19.7765 107.746 19.7765L110.932 10.3355L111.032 10.1367L111.132 9.54044Z" fill="white"/>
<path d="M95.7968 11.3293C95.6973 11.1305 95.4981 10.8324 95.2989 10.733C95.0998 10.5342 94.9006 10.4349 94.6019 10.3355C94.3031 10.2361 94.104 10.1367 93.8052 10.1367C93.4069 10.1367 93.2077 10.2361 92.909 10.4349C92.8094 10.4349 92.5107 10.8324 92.4111 10.9318C92.3115 10.8324 92.0128 10.5342 91.9132 10.4349C91.6145 10.2361 91.5149 10.1367 91.1166 10.1367C90.8178 10.1367 90.5191 10.1367 90.3199 10.3355C90.0212 10.4349 89.822 10.5342 89.6228 10.733C89.4237 10.9318 89.2245 11.1305 89.1249 11.3293C89.0254 11.528 88.9258 11.8262 88.9258 12.1243C88.9258 12.4224 89.0254 12.6212 89.1249 12.9193C89.2245 13.1181 89.3241 13.4162 89.5233 13.615C89.822 14.0125 90.1207 14.41 90.6186 14.8075C91.3157 15.5032 92.1124 15.9007 92.1124 15.9007L92.3115 16.0001C92.4111 16.0995 92.5107 16.0995 92.6103 16.0001L92.8094 15.9007C92.8094 15.9007 93.6061 15.4038 94.3031 14.8075C94.801 14.41 95.0998 14.0125 95.3985 13.7144C95.5977 13.5156 95.6973 13.2175 95.7968 13.0187C95.8964 12.7206 95.996 12.5218 95.996 12.2237C95.8964 11.8262 95.8964 11.528 95.7968 11.3293Z" fill="white"/>
</svg>
