<svg width="370" height="95" viewBox="0 0 370 95" fill="none" xmlns="http://www.w3.org/2000/svg">
<path d="M72.1173 62.5323C73.2995 64.892 73.2995 67.2517 72.7084 69.9064C72.1173 72.2661 70.935 74.3309 69.1617 76.3956C66.5016 79.0503 62.9548 81.115 59.4081 82.2949L24.5317 94.9783L24.8273 94.0935C25.1228 93.7985 25.1228 92.9136 25.4184 92.3237C25.4184 91.4388 25.714 90.5539 25.4184 89.0791C25.4184 87.8992 24.8273 86.4244 24.2361 84.6546L6.50238 35.9855C5.91125 34.2157 5.32013 33.0359 4.43344 32.151C3.84231 31.2661 2.95563 30.3812 2.3645 29.7913C1.77338 29.2013 1.18225 28.9064 0.591125 28.6114L0 28.3164L19.2116 21.2373C18.6204 21.8272 18.3249 22.4172 18.3249 23.3021C18.0293 24.4819 18.0293 25.3668 18.0293 26.2517C18.0293 27.1366 18.0293 28.0215 18.3249 28.6114L18.6204 29.4963L38.1276 81.9999L38.4231 82.5899C38.7187 82.8848 39.0143 83.4747 39.3098 84.0647C39.6054 84.6546 40.1965 85.2445 40.7877 85.8345L55.2702 80.5251C57.3392 79.9352 58.817 78.7553 60.2948 77.2805C61.477 76.1006 62.0682 74.9208 62.6593 73.151C62.9549 71.3812 62.6593 69.6114 61.1815 67.5467C60.2948 66.3668 59.4081 65.4819 58.2258 64.892H57.9303C57.3392 64.597 56.748 64.3021 56.4525 63.7121C56.1569 63.4172 56.1569 62.8273 56.1569 61.9424C56.1569 61.3524 56.4525 61.0575 56.748 60.7625C59.1125 58.4028 62.0682 57.2229 65.3194 57.8129C68.275 58.4028 70.6395 59.8776 72.1173 62.5323Z" fill="white"/>
<path d="M76.2552 15.0432C74.1863 15.6331 72.1174 15.3381 70.344 14.4532C68.5706 13.2734 67.3884 11.7986 66.7972 9.73382C66.2061 7.66907 66.5017 5.60432 67.3884 3.83453C68.5706 2.06475 70.0484 0.589928 72.1174 0.294964C74.1863 -0.294964 76.2553 0 78.0286 1.17986C79.802 2.35971 80.9843 3.83453 81.5754 5.89928C82.1665 7.96403 81.8709 10.0288 80.9843 11.7986C79.802 13.2734 78.3242 14.4532 76.2552 15.0432ZM82.1665 73.1511L82.4621 72.5612C82.7576 72.2662 83.0532 71.6763 83.0532 70.7914C83.3488 69.9065 83.3488 69.0216 83.3488 67.8418C83.3488 66.6619 83.0532 65.1871 82.7576 63.4173L73.2996 29.7914C73.0041 28.3166 72.1174 27.1367 71.2307 26.2518C70.0484 25.072 68.8662 24.482 67.3884 24.1871H67.0928L69.1617 23.3022H70.0484C70.9351 23.0072 72.4129 22.7122 73.8908 21.8274C75.3686 21.2374 77.1419 20.3525 78.9153 19.1727C80.6887 17.9928 82.1665 16.518 83.3488 14.4532L96.3535 61.6475L96.6491 62.5324C96.9446 63.1223 97.2402 63.7123 97.8313 64.5972C98.4225 65.482 99.0136 66.072 99.6047 66.6619C100.196 67.2518 101.083 67.5468 101.674 67.8418L82.1665 73.1511Z" fill="white"/>
<path d="M130.343 10.3235C129.161 11.7984 127.092 14.748 131.23 16.5178C135.663 19.1725 136.845 23.302 136.845 26.2516C136.55 29.2012 136.254 29.7912 135.959 30.971L135.072 32.7408L130.048 43.9495C128.274 41.8847 125.91 38.9351 122.954 35.1005C119.998 31.266 117.338 27.1365 114.383 23.302C111.427 19.1725 109.063 15.6329 107.289 12.6833L104.334 8.25879C103.742 10.6185 102.856 12.3883 101.674 14.453C100.491 16.2228 99.0135 17.6976 97.8312 19.1725C96.3534 20.3523 95.1711 21.5322 94.2845 22.1221L92.8066 23.302H93.1022C96.3534 23.007 98.7179 24.1869 100.787 26.8415L118.816 51.3236C120.294 53.3883 121.476 55.4531 122.363 57.5178C123.25 59.5826 124.136 61.3523 124.727 62.5322L125.614 64.597L132.708 46.3092L138.619 32.7408C140.392 28.9063 141.279 24.7768 141.279 20.3523V20.0574C140.983 17.6976 140.392 15.6329 139.21 13.5681C135.368 8.55375 131.525 8.84872 130.343 10.3235Z" fill="white"/>
<path d="M242.066 60.4678H241.475C239.997 60.4678 238.519 60.4678 237.041 60.4678C234.972 60.4678 232.608 60.4678 230.539 60.4678C230.243 60.4678 230.243 60.4678 229.948 60.4678H221.377L221.968 59.8778C222.263 59.5829 222.854 58.9929 223.15 58.108C223.445 57.2232 224.037 56.3383 224.332 55.1584C224.628 53.9785 224.923 52.5037 224.923 50.7339L225.219 22.7123C225.219 21.8275 224.923 20.6476 224.628 19.4677C224.332 17.9929 223.741 16.8131 222.854 15.6332C222.559 15.0433 222.263 14.7483 221.672 14.4534C220.49 13.2735 219.012 12.9785 217.534 12.6836H216.943C215.761 12.6836 214.283 13.2735 213.101 13.8634C211.327 14.7483 209.85 16.2231 208.667 17.9929C207.485 19.7627 206.303 21.2375 205.416 23.3023C204.234 25.957 203.052 28.6116 202.165 30.9713C201.574 32.7411 200.687 34.5109 199.8 36.2807L199.505 36.8706V37.1656V37.4606V48.3742C199.505 50.439 199.8 52.2088 200.392 54.2735C200.983 56.3383 201.574 58.108 202.756 59.8778C203.052 60.1728 203.347 60.4678 203.938 60.4678H203.347C201.869 60.4678 200.392 60.4678 198.914 60.4678C196.845 60.4678 194.48 60.4678 192.411 60.4678C192.116 60.4678 191.82 60.4678 191.82 60.4678H183.249L183.84 59.8778C184.136 59.5829 184.727 58.9929 185.022 58.108C185.318 57.2232 185.909 56.3383 186.205 55.1584C186.5 53.9785 186.796 52.5037 186.796 50.7339L186.205 22.7123C186.205 21.8275 185.909 20.6476 185.613 19.4677C185.318 17.9929 184.727 16.8131 183.84 15.6332C183.84 15.0433 183.249 14.4534 182.953 14.1584C181.771 12.9785 180.293 12.6836 178.815 12.3886H178.224C177.042 12.3886 175.86 12.9785 174.382 13.5685C172.609 14.4534 171.131 15.9282 169.949 17.698C168.766 19.4677 167.584 20.9426 166.697 23.0073C165.515 25.662 164.333 28.3167 163.446 30.6764C163.151 31.5613 162.855 32.1512 162.56 32.7411V52.5037L162.855 53.3886C162.855 53.9786 163.151 54.8634 163.446 55.7483C163.742 56.6332 164.037 57.5181 164.628 58.403C165.22 59.2879 165.811 59.8778 166.402 60.1728H145.712L146.304 59.5829C146.599 59.2879 146.895 58.698 147.486 58.108C147.781 57.2232 148.373 56.3383 148.668 55.1584C148.964 53.9785 149.259 52.5037 149.259 50.439L149.555 14.7483C149.555 13.2735 149.259 11.7987 148.373 10.6188C147.781 9.144 146.599 8.2591 145.417 7.37421H145.121H146.895H147.486C148.668 7.37421 150.146 7.37421 151.919 7.07925C153.693 6.78428 155.762 6.48932 157.535 5.60443C159.013 5.0145 160.786 4.12961 162.56 2.65479V28.6116C163.446 26.2519 164.628 23.8922 165.515 21.5325C166.402 19.4677 167.584 17.403 168.766 15.3382C169.949 13.2735 171.426 11.5037 173.2 10.0289C174.973 8.55407 176.747 7.37421 178.815 6.48932C179.407 6.48932 180.293 6.19436 181.476 5.60443C182.658 5.30946 184.136 5.0145 185.613 5.0145H186.205C187.091 5.0145 187.978 5.0145 188.865 5.30946C190.047 5.60443 190.934 5.89939 192.116 6.48932C192.411 6.78428 193.298 7.07925 194.185 7.96414C195.071 8.55407 195.958 9.73392 196.845 10.9138C198.027 12.6836 198.618 15.0433 198.914 17.9929C198.914 19.1728 199.209 21.2375 199.209 23.8922C199.209 26.5469 199.209 29.4965 199.209 32.4462C200.687 28.6116 202.461 25.0721 204.234 21.2375C205.121 19.1728 206.303 17.108 207.485 15.0433C208.667 12.9785 210.145 11.2087 211.919 9.73393C213.692 8.2591 215.465 7.07925 217.534 6.19436C218.125 5.89939 219.012 5.60443 220.194 5.30946C221.672 5.60443 222.854 5.60443 224.628 5.60443H225.219C226.106 5.60443 226.992 5.60443 227.879 5.89939C229.061 6.19436 229.948 6.48932 231.13 7.07925C231.426 7.37421 232.312 7.66918 233.199 8.55407C234.086 9.144 234.972 10.3239 235.859 11.5037C237.041 13.2735 237.632 15.6332 237.928 18.5829C238.224 20.3526 238.224 23.3023 238.224 27.4318V33.626V39.8203V48.6692C238.224 50.7339 238.519 52.5037 239.11 54.5685C239.701 56.6332 240.293 58.403 241.475 60.1728C241.475 60.1728 241.77 60.4678 242.066 60.4678Z" fill="white"/>
<path d="M290.538 14.7482C294.972 17.9928 298.223 21.8274 300.587 26.5468C302.656 31.2662 303.543 36.2806 303.247 41.295C302.952 46.3094 301.178 51.0288 298.223 55.4533C295.267 59.8777 291.129 62.8274 286.4 64.8921C281.671 66.9569 276.647 67.5468 271.622 67.2519C266.302 66.6619 261.573 64.8921 257.14 61.6475C252.706 58.4029 249.159 54.5684 247.09 49.849C245.022 45.1295 244.135 40.1151 244.43 35.1008C244.726 30.0864 246.499 25.3669 249.455 20.9425C252.411 16.518 256.548 13.5684 261.277 11.5036C266.006 9.43887 271.031 8.84894 276.056 9.14391C281.08 9.73384 285.809 11.7986 290.538 14.7482ZM273.1 53.6835C280.193 53.6835 286.105 52.7986 290.243 50.7339C293.789 48.9641 296.449 46.8993 298.223 44.5396C300.883 40.7051 301.474 37.1655 299.701 33.9209C298.518 31.8562 295.858 29.4964 291.425 26.8418C286.991 24.1871 281.08 23.0072 273.691 22.7123C266.598 22.7123 260.686 23.5972 256.548 25.6619C253.002 27.4317 250.342 29.4964 248.568 31.8561C246.499 34.5108 246.204 37.4605 247.09 40.7051C247.977 43.9497 250.637 46.8993 254.775 49.554C259.209 52.5036 265.415 53.6835 273.1 53.6835Z" fill="white"/>
<path fill-rule="evenodd" clip-rule="evenodd" d="M367.384 74.3309C365.315 71.6763 364.429 70.7914 361.178 70.4964C360.291 70.4964 359.404 70.4964 358.518 70.7914C357.631 71.0863 357.04 71.6763 356.744 72.5612C356.744 73.4461 356.744 74.3309 357.335 75.5108C357.335 75.8058 357.631 76.1007 357.631 76.3957C358.517 79.0504 358.222 81.1151 357.04 83.4748C355.266 85.8345 353.197 87.0144 350.242 87.0144C347.286 87.3094 344.626 86.7194 341.67 85.2446C338.715 84.0648 336.35 82.295 334.577 80.5252C329.848 75.2158 326.892 69.3166 326.301 63.1223C327.779 63.4173 329.257 63.7122 330.735 63.7122C334.281 64.0072 338.124 64.0072 341.67 63.4173C345.217 62.8273 348.173 61.3525 350.537 59.5827C352.606 57.813 354.084 55.4532 354.971 52.7986C354.971 52.5036 355.266 52.2086 355.266 51.9137C356.153 48.964 356.153 46.0144 355.562 43.0647C355.266 40.705 354.084 38.6403 352.606 36.8705C351.128 35.1007 349.355 33.3309 347.286 31.8561C345.217 30.3813 343.148 29.4964 341.079 28.9065L317.73 20.9424L314.774 19.7626L315.07 20.3525C315.365 20.6475 315.661 21.2374 315.661 21.8273C315.956 22.4173 315.956 23.3021 315.956 24.482C315.956 25.0719 315.956 25.3669 315.956 25.9568L315.365 27.7266L302.065 66.6619C301.474 67.8417 301.178 69.0216 300.292 69.9065C299.701 70.7914 299.109 71.3813 298.518 71.6763C297.927 71.9712 297.336 72.2662 297.04 72.5612L296.449 72.8561L316.252 79.3453C315.661 78.7554 315.07 78.1655 315.07 77.5755C314.774 76.9856 314.774 76.1007 314.774 75.5108C314.774 74.6259 314.774 74.036 314.774 73.741V72.8561L317.139 65.777C318.912 70.4964 321.868 74.9209 325.71 78.7554C333.986 86.1295 341.375 89.3741 352.606 89.964C355.857 90.259 359.109 89.9641 362.064 88.7842C365.02 87.6043 367.384 85.8345 368.567 83.1799C369.749 80.2302 369.453 77.2806 367.384 74.3309ZM329.848 28.3165L334.281 29.7914C336.941 30.6762 339.306 32.1511 341.079 33.9209C342.853 35.6906 344.035 37.7554 344.626 39.8201C345.217 41.8849 345.513 44.2446 345.217 46.3093C345.217 47.1942 344.922 48.0791 344.626 48.964C344.035 51.0288 342.853 52.7986 341.079 54.2734C338.715 56.6331 336.055 58.1079 332.508 58.9928C329.257 59.8777 326.301 59.8777 323.346 59.5827C321.572 59.2878 321.277 59.2878 320.981 59.2878C320.685 59.2878 320.685 59.2878 320.39 58.9928C320.094 58.9928 319.799 58.6978 319.799 58.6978L329.257 30.6762L329.552 30.0863L329.848 28.3165Z" fill="white"/>
<path d="M284.331 33.6259C284.036 33.0359 283.445 32.1511 282.853 31.8561C282.262 31.2662 281.671 30.9712 280.785 30.6762C279.898 30.3813 279.307 30.0863 278.42 30.0863C277.238 30.0863 276.647 30.3813 275.76 30.9712C275.464 30.9712 274.578 32.1511 274.282 32.446C273.987 32.1511 273.1 31.2662 272.804 30.9712C271.918 30.3813 271.622 30.0863 270.44 30.0863C269.553 30.0863 268.666 30.0863 268.075 30.6762C267.189 30.9712 266.598 31.2662 266.006 31.8561C265.415 32.446 264.824 33.0359 264.529 33.6259C264.233 34.2158 263.938 35.1007 263.938 35.9856C263.938 36.8705 264.233 37.4604 264.529 38.3453C264.824 38.9352 265.12 39.8201 265.711 40.41C266.598 41.5899 267.484 42.7698 268.962 43.9496C271.031 46.0144 273.395 47.1942 273.395 47.1942L273.987 47.4892C274.282 47.7842 274.578 47.7842 274.873 47.4892L275.464 47.1942C275.464 47.1942 277.829 45.7194 279.898 43.9496C281.376 42.7698 282.262 41.5899 283.149 40.705C283.74 40.1151 284.036 39.2302 284.331 38.6403C284.627 37.7554 284.922 37.1654 284.922 36.2805C284.627 35.1007 284.627 34.2158 284.331 33.6259Z" fill="white"/>
</svg>
