<svg width="120" height="25" viewBox="0 0 120 25" fill="none" xmlns="http://www.w3.org/2000/svg">
<path d="M18.5621 19.8145C18.6178 20.6773 18.3952 21.4565 17.8942 22.1522C17.3933 22.8479 16.7811 23.3489 16.0297 23.7385C14.833 24.2672 13.5807 24.5177 12.2727 24.462H0L0.166976 24.2951C0.278293 24.1837 0.41744 24.0168 0.556586 23.7941C0.695733 23.5437 0.834879 23.2097 0.918367 22.8201C1.05751 22.4027 1.11317 21.9017 1.11317 21.3173V3.95184C1.11317 3.36742 1.05751 2.8665 0.946196 2.47689C0.834879 2.05945 0.695733 1.75333 0.556586 1.50286C0.41744 1.2524 0.278293 1.08542 0.166976 0.974105L0 0.807129H6.84601C6.59555 0.918446 6.40074 1.08542 6.26159 1.36371C6.09462 1.61418 5.9833 1.89247 5.89981 2.19859C5.81632 2.47689 5.76067 2.75518 5.70501 2.94999L5.64935 3.25611V21.9574L5.67718 22.2079C5.70501 22.3748 5.76067 22.5696 5.81632 22.8201C5.87198 23.0706 5.9833 23.2932 6.09462 23.5437H11.2152C11.9109 23.5437 12.551 23.3767 13.1911 23.0706C13.6642 22.8479 14.0816 22.514 14.3878 22.0687C14.7217 21.5956 14.7774 20.9555 14.6104 20.1763C14.4991 19.7311 14.2764 19.3414 13.9981 18.9797L13.9425 18.924C13.8033 18.757 13.692 18.5622 13.6085 18.3952C13.525 18.2004 13.525 18.0056 13.6642 17.783C13.7477 17.6439 13.859 17.5325 13.9981 17.4769C15 17.0038 16.0019 17.0038 17.0037 17.5047C17.8942 18.0613 18.423 18.8127 18.5621 19.8145Z" fill="white"/>
<path d="M22.486 5.14842C21.7624 5.14842 21.1502 4.89796 20.6492 4.39703C20.1483 3.8961 19.8978 3.28386 19.8978 2.5603C19.8978 1.83673 20.1483 1.25232 20.6492 0.751391C21.1502 0.250464 21.7624 0 22.486 0C23.2095 0 23.794 0.250464 24.2949 0.751391C24.7958 1.25232 25.0741 1.86456 25.0741 2.5603C25.0741 3.28386 24.8236 3.8961 24.2949 4.39703C23.8218 4.89796 23.2095 5.14842 22.486 5.14842ZM19.2578 24.462L19.4248 24.295C19.5361 24.1837 19.6752 24.0167 19.8144 23.7662C19.9535 23.5158 20.0927 23.1818 20.1761 22.7922C20.2875 22.3748 20.3431 21.9017 20.3431 21.3172V9.6846C20.3431 9.18367 20.2318 8.7384 19.9813 8.32096C19.7309 7.87569 19.3969 7.54174 18.9795 7.29128C18.9517 7.26345 18.896 7.26345 18.8682 7.23562L19.4804 7.26345H19.7587C20.1205 7.26345 20.5658 7.23562 21.1223 7.17996C21.6789 7.1243 22.2912 6.98515 22.9869 6.73469C23.6826 6.48423 24.2949 6.12245 24.8515 5.64935V22.013L24.9071 22.3191C24.935 22.5417 25.0184 22.7922 25.1019 23.0983C25.1854 23.3766 25.2967 23.6549 25.4637 23.9332C25.6307 24.1837 25.8255 24.3785 26.0481 24.4898H19.2578V24.462Z" fill="white"/>
<path d="M39.1281 6.73471C38.6829 7.15215 37.8758 8.07051 39.2394 8.84973C40.6587 9.82376 40.7144 11.3822 40.4918 12.6067C40.4918 12.9963 40.4083 13.3581 40.2691 13.7477L39.963 14.3043L37.9871 17.8943C37.4305 17.1429 36.7348 16.0854 35.9278 14.7217C35.1207 13.3581 34.3137 11.9388 33.5066 10.4638C32.6996 8.98888 32.0317 7.73656 31.4751 6.70688L30.6402 5.14844C30.3897 5.872 30.0279 6.51207 29.5548 7.06866C29.0817 7.62525 28.5808 8.09834 28.0799 8.48795C27.5511 8.87756 27.1059 9.15586 26.7441 9.35066L26.1875 9.62895H26.2988C27.3285 9.68461 28.1356 10.1577 28.6921 11.0761L33.8684 19.7866C34.258 20.5102 34.5641 21.2059 34.8146 21.9295C35.065 22.6252 35.2599 23.2375 35.399 23.7106L35.566 24.4341L38.5437 18.5622L40.9649 14.2208C41.7163 12.9963 42.1337 11.6605 42.2172 10.2412V10.1021C42.2172 9.35066 42.0502 8.6271 41.7163 7.93137C40.9092 6.31727 39.5734 6.31727 39.1281 6.73471Z" fill="white"/>
<path d="M75.8347 24.3785H75.6399C75.6399 24.3785 75.6399 24.4063 75.6677 24.4063C75.6677 24.4063 75.6677 24.4341 75.6955 24.4341C75.2224 24.4341 74.7215 24.462 74.2484 24.462C73.5249 24.462 72.7735 24.462 72.0499 24.4341C71.9942 24.4341 71.9108 24.4341 71.8273 24.4063H68.9887L69.1557 24.2393C69.267 24.128 69.4061 23.9332 69.5453 23.6828C69.6844 23.4323 69.8236 23.0983 69.907 22.7087C70.0184 22.2913 70.074 21.7904 70.074 21.2059V11.8275C70.074 11.5492 70.0184 11.1596 69.907 10.7143C69.8236 10.269 69.6288 9.82376 69.3505 9.43415C69.2113 9.26717 69.0722 9.1002 68.933 8.98888C68.4878 8.6271 68.0147 8.46012 67.5137 8.46012H67.3468C66.9293 8.48795 66.5119 8.6271 66.0944 8.82191C65.51 9.15586 64.9813 9.62896 64.5917 10.1855C64.1742 10.7421 63.8403 11.3265 63.5341 11.9388C63.1167 12.8015 62.7549 13.6642 62.421 14.5547C62.1705 15.167 61.92 15.7514 61.6696 16.3636L61.5861 16.5585C61.5583 16.5863 61.5583 16.6419 61.5304 16.6698C61.5026 16.6976 61.5026 16.7254 61.4748 16.7533V20.3711C61.5026 21.039 61.5861 21.679 61.7809 22.3469C61.9757 22.987 62.2262 23.5993 62.5601 24.1837C62.6714 24.295 62.7827 24.3785 62.8941 24.4063H62.6993L62.7271 24.4341L62.7549 24.462C62.2818 24.462 61.7809 24.4898 61.3078 24.4898C60.5842 24.4898 59.8607 24.4898 59.1371 24.462C59.0536 24.462 58.998 24.462 58.9145 24.4341H56.0759L56.2429 24.2672C56.3542 24.1559 56.4933 23.961 56.6325 23.7106C56.7716 23.4601 56.9108 23.1262 56.9943 22.7366C57.1056 22.3191 57.1612 21.8182 57.1612 21.2338V11.8275C57.1612 11.5492 57.1056 11.1596 56.9943 10.7143C56.9108 10.269 56.716 9.82376 56.4377 9.43415C56.3264 9.26717 56.1594 9.1002 56.0202 8.98888C55.575 8.6271 55.1019 8.46012 54.6009 8.46012H54.434C54.0165 8.48795 53.5991 8.6271 53.1816 8.82191C52.5972 9.15586 52.0685 9.62896 51.6789 10.1855C51.2614 10.7421 50.8996 11.3265 50.6213 11.9388C50.2317 12.8015 49.8699 13.6642 49.5082 14.5547C49.4247 14.8052 49.3134 15.0557 49.202 15.2783V21.8738L49.2577 22.2078C49.2855 22.4304 49.3412 22.6809 49.4247 22.987C49.5082 23.2931 49.6195 23.5714 49.7865 23.8497C49.9534 24.128 50.1482 24.3228 50.3987 24.4341H43.5527L43.7197 24.2672C43.831 24.1559 43.9423 23.9889 44.0815 23.7384C44.2206 23.4879 44.3598 23.154 44.4711 22.7644C44.5824 22.3469 44.638 21.846 44.638 21.2338V9.32283C44.638 8.82191 44.5267 8.34881 44.2763 7.90354C44.0258 7.45827 43.6918 7.09649 43.2744 6.84603C43.2466 6.84603 43.2187 6.8182 43.1909 6.79037L43.8032 6.8182H43.9701C44.3597 6.8182 44.8328 6.79037 45.4173 6.73471C46.0017 6.67905 46.6418 6.51207 47.3097 6.26161C48.0054 6.01115 48.6176 5.64936 49.1742 5.14844V13.8312C49.5082 13.052 49.87 12.2727 50.2317 11.4935C50.5379 10.77 50.8996 10.1021 51.2892 9.40632C51.7067 8.71059 52.1798 8.12617 52.7642 7.59742C53.3208 7.09649 53.933 6.73471 54.6009 6.42859C54.7957 6.3451 55.1019 6.26161 55.5193 6.15029C55.9089 6.03898 56.382 5.98332 56.9108 5.98332H57.1334C57.3839 5.98332 57.69 6.03898 58.0239 6.09463C58.3579 6.15029 58.7475 6.28944 59.1371 6.51207C59.2763 6.56773 59.4989 6.70688 59.7772 6.95734C60.0833 7.17998 60.3894 7.51393 60.6677 7.9592C61.0573 8.57144 61.3078 9.37849 61.3635 10.3525C61.3913 10.77 61.4191 11.41 61.4469 12.3284C61.4748 13.2189 61.4748 14.193 61.4748 15.2226C62.0035 13.9703 62.5601 12.718 63.1445 11.4935C63.4506 10.77 63.8124 10.1021 64.202 9.40632C64.6195 8.71059 65.0926 8.12617 65.677 7.59742C66.2336 7.09649 66.8458 6.73471 67.5137 6.42859C67.7085 6.3451 67.9868 6.26161 68.4321 6.15029C68.8217 6.03898 69.2948 5.98332 69.8236 5.98332H70.0184C70.2688 5.98332 70.575 6.03898 70.9089 6.09463C71.2429 6.15029 71.6325 6.28944 72.0221 6.51207C72.1612 6.56773 72.3839 6.70688 72.6622 6.95734C72.9683 7.17998 73.2466 7.51393 73.5527 7.9592C73.9423 8.57144 74.1928 9.37849 74.2484 10.3525C74.3041 10.9369 74.3319 11.9388 74.3319 13.3024L74.3597 15.3618L74.3319 17.4212V20.3432C74.3319 21.0111 74.4432 21.6512 74.638 22.3191C74.8328 22.9592 75.0833 23.5714 75.4173 24.1559C75.5842 24.2672 75.6955 24.3507 75.8347 24.3785Z" fill="white"/>
<path d="M91.5029 7.40263C93.0056 8.46014 94.1188 9.76812 94.8424 11.3544C95.5938 12.9407 95.8999 14.5826 95.7886 16.2802C95.7051 17.9778 95.1207 19.564 94.1188 21.0112C93.0891 22.4583 91.809 23.5158 90.2227 24.1837C88.6643 24.8516 86.9945 25.1021 85.2691 24.9629C83.5437 24.7959 81.9296 24.2115 80.4268 23.154C78.924 22.0965 77.8109 20.7885 77.0595 19.2023C76.3359 17.616 76.002 16.0019 76.1133 14.2765C76.2246 12.551 76.7812 10.9926 77.8109 9.54548C78.8405 8.09836 80.1207 7.04085 81.707 6.37294C83.2932 5.70504 84.9352 5.42675 86.6606 5.59372C88.386 5.73287 90.0001 6.34511 91.5029 7.40263ZM85.8257 20.4546C88.219 20.4546 90.1114 20.0928 91.5864 19.4249C92.8109 18.8683 93.6736 18.1726 94.258 17.3655C95.1763 16.0575 95.3433 14.8609 94.7867 13.7755C94.4249 13.0798 93.5066 12.3006 92.0038 11.4657C90.501 10.603 88.553 10.1577 86.1318 10.1577C83.7663 10.1299 81.8461 10.4917 80.3711 11.1874C79.1745 11.744 78.2839 12.4397 77.7274 13.219C77.0873 14.1373 76.9203 15.1392 77.2543 16.2245C77.5882 17.3099 78.4509 18.2839 79.8424 19.1744C81.2339 20.0093 83.2376 20.4546 85.8257 20.4546Z" fill="white"/>
<path fill-rule="evenodd" clip-rule="evenodd" d="M118.636 17.5047C117.718 16.8925 117.384 16.6977 116.271 16.9481C115.965 17.0316 115.687 17.143 115.436 17.3378C115.186 17.5326 115.074 17.783 115.102 18.0613C115.158 18.3674 115.325 18.6179 115.603 18.8684C115.659 18.924 115.742 19.0075 115.798 19.0632C116.354 19.7311 116.521 20.4825 116.327 21.2895C116.048 22.1801 115.464 22.8201 114.601 23.1541C113.739 23.488 112.792 23.6272 111.763 23.5159C110.733 23.4324 109.842 23.1819 109.091 22.7923C107.06 21.6513 105.585 20.1485 104.666 18.284C105.139 18.2283 105.612 18.1448 106.085 18.0335C107.254 17.7552 108.367 17.3378 109.397 16.7812C110.427 16.2246 111.206 15.501 111.735 14.6105C112.18 13.8034 112.403 12.9686 112.403 12.078C112.403 11.9945 112.403 11.8832 112.375 11.7719C112.319 10.7979 112.041 9.85168 111.54 8.96114C111.178 8.29324 110.649 7.76448 109.982 7.31921C109.314 6.87394 108.59 6.56782 107.783 6.34518C107.004 6.12255 106.252 6.03906 105.585 6.03906H97.5975H96.54L96.707 6.15038C96.8183 6.23387 96.9575 6.37301 97.0966 6.56782C97.2358 6.76262 97.3749 7.01309 97.4584 7.31921C97.5141 7.45836 97.5419 7.62533 97.5697 7.79231V8.43238V21.9574C97.5697 22.4027 97.5141 22.7923 97.4027 23.0984C97.2914 23.4045 97.1801 23.655 97.041 23.8498C96.9018 24.0446 96.7627 24.1559 96.6513 24.2394L96.4844 24.3507H103.33C103.08 24.2673 102.885 24.1281 102.746 23.9055C102.579 23.7107 102.468 23.488 102.384 23.2654C102.301 23.0428 102.245 22.848 102.189 22.681L102.134 22.4305V20.0094C103.191 21.2895 104.555 22.3192 106.169 23.0706C109.453 24.4899 112.152 24.7125 115.631 23.7385C116.661 23.4602 117.579 23.0149 118.414 22.4305C119.249 21.7626 119.722 20.9556 119.861 20.0094C119.917 19.0075 119.499 18.1726 118.636 17.5047ZM102.134 7.18006H103.609C104.583 7.18006 105.418 7.37487 106.141 7.73665C106.865 8.09843 107.449 8.57153 107.894 9.18377C108.34 9.76819 108.646 10.4083 108.785 11.104C108.841 11.3823 108.868 11.6606 108.868 11.9389C108.868 12.6346 108.701 13.3025 108.367 13.9426C107.894 14.861 107.171 15.668 106.197 16.3359C105.306 16.9203 104.36 17.2821 103.414 17.4769C102.802 17.5882 102.718 17.6161 102.635 17.6161C102.579 17.6161 102.523 17.6161 102.384 17.6439C102.273 17.6439 102.134 17.6439 102.134 17.6439V7.98711V7.76448V7.18006Z" fill="white"/>
<path d="M89.4989 13.6366C89.3875 13.414 89.2484 13.1913 89.0536 13.0244C88.8588 12.8574 88.6361 12.7182 88.3857 12.6069C88.1352 12.4956 87.8569 12.4678 87.5786 12.4678C87.189 12.4678 87.022 12.5791 86.6881 12.7739C86.6046 12.8296 86.2707 13.1635 86.1872 13.2192C86.1037 13.1635 85.7697 12.8017 85.6862 12.7739C85.3523 12.5791 85.2688 12.4678 84.8792 12.4678C84.6009 12.4678 84.3226 12.5234 84.0721 12.6069C83.8217 12.6904 83.599 12.8574 83.4042 13.0244C83.2094 13.1913 83.0425 13.414 82.959 13.6366C82.8477 13.8871 82.792 14.1375 82.792 14.388C82.792 14.6385 82.8477 14.8889 82.959 15.1672C83.0425 15.3898 83.1816 15.6125 83.3486 15.8351C83.599 16.1969 83.9608 16.5865 84.4061 16.9761C85.1575 17.6162 85.881 18.0615 85.9089 18.0893L86.1037 18.2006C86.1872 18.2563 86.2985 18.2563 86.382 18.2006L86.5768 18.0893C86.6046 18.0615 87.3282 17.6162 88.0796 16.9761C88.5248 16.5865 88.8866 16.1969 89.1371 15.8351C89.304 15.6125 89.4432 15.362 89.5267 15.1672C89.638 14.8889 89.6937 14.6385 89.6937 14.388C89.6658 14.1375 89.6102 13.8871 89.4989 13.6366Z" fill="white"/>
</svg>
