<svg width="375" height="697" viewBox="0 0 375 697" fill="none" xmlns="http://www.w3.org/2000/svg">
<g filter="url(#filter0_f_788_2924)">
<circle cx="185.725" cy="149.908" r="59.9086" fill="#C24BED"/>
</g>
<g filter="url(#filter1_f_788_2924)">
<circle cx="185.725" cy="231.486" r="59.9086" fill="#3D70F5"/>
</g>
<g filter="url(#filter2_f_788_2924)">
<ellipse cx="186.071" cy="404.166" rx="157.207" ry="59.9086" fill="#8CBF00"/>
</g>
<g filter="url(#filter3_f_788_2924)">
<ellipse cx="187" cy="329.748" rx="172" ry="65.5459" fill="#00B5DC"/>
</g>
<g filter="url(#filter4_f_788_2924)">
<ellipse cx="187.134" cy="494.12" rx="158.215" ry="59.8525" fill="#FFD800"/>
</g>
<g filter="url(#filter5_f_788_2924)">
<ellipse cx="190.845" cy="546.549" rx="161.927" ry="59.3885" fill="#EC5F4E"/>
</g>
<g filter="url(#filter6_f_788_2924)">
<ellipse cx="190.731" cy="610.763" rx="129.334" ry="53.6355" fill="#EF0967"/>
</g>
<path d="M269.738 589.88C270.383 597 270.383 636.484 268.447 650.724C266.511 664.964 256.186 706.389 255.54 708.978C255.024 711.05 254.465 741.774 254.25 756.877C254.895 770.254 256.315 798.173 256.831 802.833C257.476 808.658 259.412 846.848 256.831 863.029C254.766 875.975 245.645 923.226 241.343 945.233V975.007C244.14 981.48 250.765 994.555 254.895 995.073C260.058 995.72 256.186 1005.43 250.378 1004.13C244.57 1002.84 215.53 1010.61 211.012 995.073C212.948 976.949 208.431 963.357 209.722 960.12C211.012 956.884 215.53 954.295 217.466 941.997C219.402 929.698 212.303 872.091 211.012 864.324C209.722 856.557 211.012 822.898 214.239 802.833C212.69 787.816 206.71 764.212 203.914 754.287L201.978 736.811L199.397 720.629V650.724C198.751 647.703 196.686 638.296 193.589 624.833C190.491 611.37 189.717 600.668 189.717 597L269.738 589.88Z" fill="white"/>
<path d="M296.196 320.616C294.906 296.019 277.482 290.194 276.191 288.899L189.717 368.837V597L269.738 589.88C269.092 582.76 265.22 527.095 264.575 521.27C263.93 515.444 251.668 490.201 249.732 474.019C247.796 457.837 249.732 428.063 249.732 424.179C249.732 420.295 251.023 376.281 259.412 382.754C259.412 391.168 272.964 428.063 272.964 442.303C272.964 456.543 284.58 488.906 286.516 493.437C288.065 497.062 303.51 532.921 311.039 550.397C312.33 554.712 314.266 564.378 311.684 568.52C308.458 573.699 311.039 584.055 311.039 587.291C311.039 590.528 312.975 608.004 316.202 608.004C318.783 608.004 318.138 598.511 317.492 593.764C318.568 593.333 320.719 592.728 320.719 593.764C320.719 594.8 324.591 602.826 326.527 606.71C326.742 615.34 327.559 633.248 329.108 635.837C330.657 638.426 332.765 637.779 333.626 637.131C333.41 641.878 333.884 650.853 337.498 648.782C342.015 646.193 339.434 597 337.498 591.822C335.562 586.644 329.754 545.219 328.463 541.335C327.172 537.451 320.074 490.848 319.428 485.022C318.783 479.197 314.266 442.95 304.586 428.063C302.65 410.586 294.906 370.455 294.906 364.63C294.906 358.805 297.487 345.212 296.196 320.616Z" fill="white"/>
<path d="M228.436 208.637C229.082 207.99 234.244 180.158 223.919 191.808C225.264 169.679 219.657 156.551 212.303 149.144L192.756 157.472L189.717 158.767V368.837L276.191 288.899C274.9 287.605 258.767 284.368 246.506 284.368C227.791 282.426 213.594 264.95 212.303 263.008C211.012 261.066 211.658 235.823 212.303 235.176C212.948 234.528 218.756 222.23 220.047 217.699C222.628 216.405 227.791 209.285 228.436 208.637Z" fill="white"/>
<path d="M189.717 140.643C195.382 140.333 205.547 142.339 212.303 149.144L189.717 140.643Z" fill="white"/>
<path d="M212.303 149.144L189.717 140.643L192.756 157.472L212.303 149.144Z" fill="white"/>
<path d="M189.717 158.767L192.756 157.472L189.717 140.643V158.767Z" fill="white"/>
<path d="M110.27 589.88C109.625 597 109.625 636.484 111.561 650.724C113.497 664.964 123.822 706.389 124.467 708.978C124.984 711.05 125.543 741.774 125.758 756.877C125.113 770.254 123.693 798.173 123.177 802.833C122.531 808.658 120.595 846.848 123.177 863.029C125.242 875.975 134.362 923.226 138.665 945.233V975.007C135.868 981.48 129.243 994.555 125.113 995.073C119.95 995.72 123.822 1005.43 129.63 1004.13C135.438 1002.84 164.478 1010.61 168.995 995.073C167.059 976.949 171.577 963.357 170.286 960.12C168.995 956.884 164.478 954.295 162.542 941.997C160.606 929.698 167.705 872.091 168.995 864.324C170.286 856.557 168.995 822.898 165.769 802.833C167.317 787.816 173.298 764.212 176.094 754.287L178.03 736.811L180.611 720.629V650.724C181.257 647.703 183.322 638.296 186.419 624.833C189.517 611.37 190.291 600.668 190.291 597L110.27 589.88Z" fill="white"/>
<path d="M83.8115 320.616C85.1021 296.019 102.526 290.194 103.817 288.899L190.291 368.837V597L110.27 589.88C110.915 582.76 114.787 527.095 115.433 521.27C116.078 515.444 128.339 490.201 130.275 474.019C132.211 457.837 130.275 428.063 130.275 424.179C130.275 420.295 128.985 376.281 120.595 382.754C120.595 391.168 107.043 428.063 107.043 442.303C107.043 456.543 95.4274 488.906 93.4914 493.437C91.9426 497.062 76.4977 532.921 68.9688 550.397C67.6781 554.712 65.7421 564.378 68.3235 568.52C71.5501 573.699 68.9688 584.055 68.9688 587.291C68.9688 590.528 67.0328 608.004 63.8061 608.004C61.2248 608.004 61.8701 598.511 62.5155 593.764C61.4399 593.333 59.2888 592.728 59.2888 593.764C59.2888 594.8 55.4168 602.826 53.4808 606.71C53.2657 615.34 52.4483 633.248 50.8995 635.837C49.3507 638.426 47.2426 637.779 46.3822 637.131C46.5973 641.878 46.124 650.853 42.5102 648.782C37.9929 646.193 40.5742 597 42.5102 591.822C44.4462 586.644 50.2542 545.219 51.5448 541.335C52.8355 537.451 59.9342 490.848 60.5795 485.022C61.2248 479.197 65.7421 442.95 75.4221 428.063C77.3581 410.586 85.1021 370.455 85.1021 364.63C85.1021 358.805 82.5208 345.212 83.8115 320.616Z" fill="white"/>
<path d="M151.571 208.637C150.926 207.99 145.763 180.158 156.089 191.808C154.743 169.679 160.351 156.551 167.705 149.144L187.252 157.472L190.291 158.767V368.837L103.817 288.899C105.107 287.605 121.241 284.368 133.502 284.368C152.217 282.426 166.414 264.95 167.705 263.008C168.995 261.066 168.35 235.823 167.705 235.176C167.059 234.528 161.251 222.23 159.961 217.699C157.379 216.405 152.217 209.285 151.571 208.637Z" fill="white"/>
<path d="M190.291 140.643C184.626 140.333 174.461 142.339 167.705 149.144L190.291 140.643Z" fill="white"/>
<path d="M167.705 149.144L190.291 140.643L187.252 157.472L167.705 149.144Z" fill="white"/>
<path d="M190.291 158.767L187.252 157.472L190.291 140.643V158.767Z" fill="white"/>
<path d="M180.284 433.883L189.063 423.502L202.558 433.883L210.393 447.672L196.898 463.552H180.284L170.344 449.531L180.284 433.883Z" fill="#FFD800"/>
<path d="M181.037 282.747L189.245 276.535L198.977 284.73L202.536 290.744L205.296 300.392L201.156 309.446L191.206 315.857L178.495 305.349L176.897 295.039L181.037 282.747Z" fill="#00B5DC"/>
<path d="M187.2 218.03L193.207 214.357L199.87 219.784L200.744 222.47L204.567 230.584L203.529 237.82L200.744 242.371L190.586 247.853L179.226 239.904L178.353 228.501L187.2 218.03Z" fill="#3D70F5"/>
<path d="M185.353 512.7L191.81 506.676L203.934 525.779L205.297 537.02L203.934 541.796L198.266 546.057L191.02 547.453L185.353 546.057L177.246 535.918L176.17 531.142L185.353 512.7Z" fill="#EC5F4E"/>
<path d="M182.446 148.059L190.859 140.873L200.741 150.119L204.569 158.598L197.313 178.479L190.859 184.563L183.692 177.329L176.17 158.598L177.995 154.334L182.446 148.059Z" fill="#C24BED"/>
<path d="M178.116 598.759L190.713 585.004H195.72L206.783 597.945L207.994 609.176L196.447 632.779L186.837 636.685L181.104 631.802L176.501 605.188L178.116 598.759Z" fill="#EF0967"/>
<path d="M190.257 357.248V352.782L203.764 345.174V351.087L190.257 357.248Z" fill="#8CBF00"/>
<path d="M198.004 365.517L190.878 358.364L204.053 351.955L209.44 356.545L206.374 363.946L198.004 365.517Z" fill="#8CBF00"/>
<path d="M204.841 351.128V345.216L215.945 350.55L210.186 355.718L204.841 351.128Z" fill="#8CBF00"/>
<path d="M210.559 356.545L215.987 351.955V363.202L207.99 363.533L210.559 356.545Z" fill="#8CBF00"/>
<path d="M206.375 377.178L215.614 364.277L207.618 364.649L203.268 373.911L206.375 377.178Z" fill="#8CBF00"/>
<path d="M206.375 364.979L198.42 366.302L191.418 377.177L202.025 373.91L206.375 364.979Z" fill="#8CBF00"/>
<path d="M202.564 374.656L190.383 378.501V386.357L205.588 377.798L202.564 374.656Z" fill="#8CBF00"/>
<path d="M189.471 357.248V352.782L175.964 345.174V351.087L189.471 357.248Z" fill="#8CBF00"/>
<path d="M181.764 365.517L188.849 358.364L175.674 351.955L170.329 356.503L173.395 363.905L181.764 365.517Z" fill="#8CBF00"/>
<path d="M174.887 351.128V345.216L163.824 350.55L169.583 355.718L174.887 351.128Z" fill="#8CBF00"/>
<path d="M169.251 356.545L163.865 351.955V363.202L171.82 363.533L169.251 356.545Z" fill="#8CBF00"/>
<path d="M173.353 377.178L164.155 364.277L172.11 364.649L176.461 373.911L173.353 377.178Z" fill="#8CBF00"/>
<path d="M173.354 364.979L181.267 366.302L188.269 377.177L177.704 373.91L173.354 364.979Z" fill="#8CBF00"/>
<path d="M189.885 358.612L182.51 366.303L189.885 378.004L197.218 366.303L189.885 358.612Z" fill="#8CBF00"/>
<path d="M177.165 374.656L189.305 378.501V386.357L174.141 377.798L177.165 374.656Z" fill="#8CBF00"/>
<defs>
<filter id="filter0_f_788_2924" x="36.7336" y="0.916962" width="297.983" height="297.983" filterUnits="userSpaceOnUse" color-interpolation-filters="sRGB">
<feFlood flood-opacity="0" result="BackgroundImageFix"/>
<feBlend mode="normal" in="SourceGraphic" in2="BackgroundImageFix" result="shape"/>
<feGaussianBlur stdDeviation="44.5414" result="effect1_foregroundBlur_788_2924"/>
</filter>
<filter id="filter1_f_788_2924" x="36.7336" y="82.4946" width="297.983" height="297.983" filterUnits="userSpaceOnUse" color-interpolation-filters="sRGB">
<feFlood flood-opacity="0" result="BackgroundImageFix"/>
<feBlend mode="normal" in="SourceGraphic" in2="BackgroundImageFix" result="shape"/>
<feGaussianBlur stdDeviation="44.5414" result="effect1_foregroundBlur_788_2924"/>
</filter>
<filter id="filter2_f_788_2924" x="-60.2185" y="255.175" width="492.58" height="297.983" filterUnits="userSpaceOnUse" color-interpolation-filters="sRGB">
<feFlood flood-opacity="0" result="BackgroundImageFix"/>
<feBlend mode="normal" in="SourceGraphic" in2="BackgroundImageFix" result="shape"/>
<feGaussianBlur stdDeviation="44.5414" result="effect1_foregroundBlur_788_2924"/>
</filter>
<filter id="filter3_f_788_2924" x="-74.0828" y="175.119" width="522.166" height="309.257" filterUnits="userSpaceOnUse" color-interpolation-filters="sRGB">
<feFlood flood-opacity="0" result="BackgroundImageFix"/>
<feBlend mode="normal" in="SourceGraphic" in2="BackgroundImageFix" result="shape"/>
<feGaussianBlur stdDeviation="44.5414" result="effect1_foregroundBlur_788_2924"/>
</filter>
<filter id="filter4_f_788_2924" x="-60.1638" y="345.185" width="494.595" height="297.871" filterUnits="userSpaceOnUse" color-interpolation-filters="sRGB">
<feFlood flood-opacity="0" result="BackgroundImageFix"/>
<feBlend mode="normal" in="SourceGraphic" in2="BackgroundImageFix" result="shape"/>
<feGaussianBlur stdDeviation="44.5414" result="effect1_foregroundBlur_788_2924"/>
</filter>
<filter id="filter5_f_788_2924" x="-60.1638" y="398.078" width="502.019" height="296.943" filterUnits="userSpaceOnUse" color-interpolation-filters="sRGB">
<feFlood flood-opacity="0" result="BackgroundImageFix"/>
<feBlend mode="normal" in="SourceGraphic" in2="BackgroundImageFix" result="shape"/>
<feGaussianBlur stdDeviation="44.5414" result="effect1_foregroundBlur_788_2924"/>
</filter>
<filter id="filter6_f_788_2924" x="-27.6853" y="468.045" width="436.834" height="285.437" filterUnits="userSpaceOnUse" color-interpolation-filters="sRGB">
<feFlood flood-opacity="0" result="BackgroundImageFix"/>
<feBlend mode="normal" in="SourceGraphic" in2="BackgroundImageFix" result="shape"/>
<feGaussianBlur stdDeviation="44.5414" result="effect1_foregroundBlur_788_2924"/>
</filter>
</defs>
</svg>
