<svg width="445" height="757" viewBox="0 0 445 757" fill="none" xmlns="http://www.w3.org/2000/svg">
<path d="M340.769 666.397C341.726 676.958 341.726 735.524 338.854 756.646C335.983 777.768 320.667 839.214 319.71 843.054C318.944 846.127 318.115 891.699 317.796 914.101C318.753 933.943 320.859 975.355 321.624 982.268C322.582 990.909 325.453 1047.56 321.624 1071.56C318.561 1090.76 305.033 1160.85 298.651 1193.49V1237.65C302.799 1247.25 312.627 1266.65 318.753 1267.42C326.41 1268.38 320.667 1282.78 312.052 1280.86C303.437 1278.94 260.362 1290.46 253.662 1267.42C256.534 1240.53 249.833 1220.37 251.747 1215.57C253.662 1210.77 260.362 1206.93 263.234 1188.69C266.106 1170.45 255.576 1085 253.662 1073.48C251.747 1061.96 253.662 1012.03 258.448 982.268C256.151 959.994 247.28 924.983 243.133 910.261L240.261 884.339L236.432 860.336V756.646C235.475 752.165 232.412 738.212 227.817 718.242C223.222 698.272 222.074 682.399 222.074 676.958L340.769 666.397Z" fill="white"/>
<path d="M380.015 266.998C378.1 230.514 352.255 221.873 350.341 219.953L222.074 338.525V676.958L340.769 666.397C339.812 655.836 334.068 573.268 333.111 564.627C332.154 555.986 313.967 518.542 311.095 494.54C308.223 470.538 311.095 426.374 311.095 420.613C311.095 414.852 313.009 349.566 325.453 359.167C325.453 371.648 345.555 426.374 345.555 447.496C345.555 468.618 362.785 516.622 365.656 523.343C367.954 528.719 390.863 581.909 402.031 607.831C403.945 614.232 406.817 628.569 402.988 634.714C398.202 642.395 402.031 657.756 402.031 662.557C402.031 667.357 404.902 693.28 409.688 693.28C413.517 693.28 412.56 679.198 411.603 672.158C413.198 671.518 416.389 670.621 416.389 672.158C416.389 673.694 422.132 685.599 425.004 691.359C425.323 704.161 426.535 730.723 428.833 734.564C431.13 738.404 434.257 737.444 435.533 736.484C435.214 743.525 435.916 756.838 441.277 753.766C447.977 749.925 444.148 676.958 441.277 669.277C438.405 661.596 429.79 600.15 427.876 594.39C425.961 588.629 415.432 519.503 414.475 510.862C413.517 502.221 406.817 448.456 392.459 426.374C389.587 400.451 378.1 340.925 378.1 332.284C378.1 323.643 381.929 303.481 380.015 266.998Z" fill="white"/>
<path d="M279.507 100.901C280.464 99.9413 288.122 58.6572 272.806 75.9386C274.802 43.1138 266.484 23.6412 255.576 12.655L226.582 25.0075L222.074 26.9281V338.525L350.341 219.953C348.427 218.033 324.496 213.232 306.309 213.232C278.55 210.352 257.491 184.43 255.576 181.549C253.662 178.669 254.619 141.225 255.576 140.265C256.534 139.305 265.149 121.063 267.063 114.343C270.892 112.422 278.55 101.861 279.507 100.901Z" fill="white"/>
<path d="M222.074 0.0450847C230.477 -0.414632 245.555 2.56158 255.576 12.655L222.074 0.0450847Z" fill="white"/>
<path d="M255.576 12.655L222.074 0.0450847L226.582 25.0075L255.576 12.655Z" fill="white"/>
<path d="M222.074 26.9281L226.582 25.0075L222.074 0.0450847V26.9281Z" fill="white"/>
<path d="M104.231 666.397C103.274 676.958 103.274 735.524 106.146 756.646C109.017 777.768 124.333 839.214 125.29 843.054C126.056 846.127 126.885 891.699 127.204 914.101C126.247 933.943 124.141 975.355 123.376 982.268C122.418 990.909 119.547 1047.56 123.376 1071.56C126.439 1090.76 139.967 1160.85 146.349 1193.49V1237.65C142.201 1247.25 132.373 1266.65 126.247 1267.42C118.59 1268.38 124.333 1282.78 132.948 1280.86C141.563 1278.94 184.638 1290.46 191.338 1267.42C188.466 1240.53 195.167 1220.37 193.253 1215.57C191.338 1210.77 184.638 1206.93 181.766 1188.69C178.894 1170.45 189.424 1085 191.338 1073.48C193.253 1061.96 191.338 1012.03 186.552 982.268C188.849 959.994 197.72 924.983 201.867 910.261L204.739 884.339L208.568 860.336V756.646C209.525 752.165 212.588 738.212 217.183 718.242C221.778 698.272 222.926 682.399 222.926 676.958L104.231 666.397Z" fill="white"/>
<path d="M64.9853 266.998C66.8997 230.514 92.7446 221.873 94.659 219.953L222.926 338.525V676.958L104.231 666.397C105.188 655.836 110.932 573.268 111.889 564.627C112.846 555.986 131.033 518.542 133.905 494.54C136.777 470.538 133.905 426.374 133.905 420.613C133.905 414.852 131.991 349.566 119.547 359.167C119.547 371.648 99.4451 426.374 99.4451 447.496C99.4451 468.618 82.2152 516.622 79.3436 523.343C77.0462 528.719 54.1368 581.909 42.9693 607.831C41.0548 614.232 38.1832 628.569 42.0121 634.714C46.7981 642.395 42.9693 657.756 42.9693 662.557C42.9693 667.357 40.0976 693.28 35.3115 693.28C31.4827 693.28 32.4399 679.198 33.3971 672.158C31.8017 671.518 28.611 670.621 28.611 672.158C28.611 673.694 22.8677 685.599 19.996 691.359C19.677 704.161 18.4645 730.723 16.1672 734.564C13.8699 738.404 10.7429 737.444 9.46665 736.484C9.78572 743.525 9.08376 756.838 3.72334 753.766C-2.97718 749.925 0.851687 676.958 3.72334 669.277C6.595 661.596 15.21 600.15 17.1244 594.39C19.0388 588.629 29.5682 519.503 30.5254 510.862C31.4827 502.221 38.1832 448.456 52.5415 426.374C55.4131 400.451 66.8997 340.925 66.8997 332.284C66.8997 323.643 63.0709 303.481 64.9853 266.998Z" fill="white"/>
<path d="M165.493 100.901C164.536 99.9413 156.878 58.6572 172.194 75.9386C170.198 43.1138 178.516 23.6412 189.424 12.655L218.418 25.0075L222.926 26.9281V338.525L94.659 219.953C96.5735 218.033 120.504 213.232 138.691 213.232C166.45 210.352 187.509 184.43 189.424 181.549C191.338 178.669 190.381 141.225 189.424 140.265C188.466 139.305 179.851 121.063 177.937 114.343C174.108 112.422 166.45 101.861 165.493 100.901Z" fill="white"/>
<path d="M222.926 0.0450847C214.523 -0.414632 199.445 2.56158 189.424 12.655L222.926 0.0450847Z" fill="white"/>
<path d="M189.424 12.655L222.926 0.0450847L218.418 25.0075L189.424 12.655Z" fill="white"/>
<path d="M222.926 26.9281L218.418 25.0075L222.926 0.0450847V26.9281Z" fill="white"/>
<path d="M208.081 464.717L221.102 449.32L241.119 464.717L252.742 485.17L232.725 508.726H208.081L193.337 487.928L208.081 464.717Z" fill="#FFD800"/>
<path d="M209.199 248.996L221.373 239.781L235.81 251.937L241.089 260.857L245.182 275.169L239.042 288.598L224.282 298.107L205.429 282.521L203.059 267.229L209.199 248.996Z" fill="#00B5DC"/>
<path d="M218.342 135.06L227.253 129.612L237.136 137.662L238.432 141.646L244.102 153.681L242.563 164.415L238.432 171.164L223.364 179.296L206.515 167.505L205.219 150.591L218.342 135.06Z" fill="#3D70F5"/>
<path d="M215.599 566.267L225.177 557.33L243.161 585.666L245.182 602.34L243.161 609.424L234.754 615.745L224.006 617.816L215.599 615.745L203.575 600.705L201.979 593.621L215.599 566.267Z" fill="#EC5F4E"/>
<path d="M211.288 35.5011L223.767 24.8423L238.424 38.5567L244.102 51.1341L233.34 80.6236L223.767 89.6481L213.137 78.9182L201.979 51.1341L204.686 44.8099L211.288 35.5011Z" fill="#C24BED"/>
<path d="M206.133 683.093L221.686 666.42H227.868L241.527 682.106L243.022 695.72L228.765 724.33L216.9 729.066L209.822 723.146L204.139 690.886L206.133 683.093Z" fill="#EF0967"/>
<path d="M222.214 352.06V346.086L240.28 335.91V343.819L222.214 352.06Z" fill="#8CBF00"/>
<path d="M232.577 363.121L223.045 353.553L240.668 344.98L247.872 351.119L243.771 361.019L232.577 363.121Z" fill="#8CBF00"/>
<path d="M241.721 343.874V335.966L256.573 343.1L248.87 350.013L241.721 343.874Z" fill="#8CBF00"/>
<path d="M249.37 351.119L256.629 344.98V360.024L245.934 360.466L249.37 351.119Z" fill="#8CBF00"/>
<path d="M243.773 378.717L256.131 361.462L245.435 361.959L239.616 374.348L243.773 378.717Z" fill="#8CBF00"/>
<path d="M243.773 362.402L233.132 364.172L223.767 378.717L237.954 374.348L243.773 362.402Z" fill="#8CBF00"/>
<path d="M238.674 375.344L222.381 380.487V390.995L242.719 379.547L238.674 375.344Z" fill="#8CBF00"/>
<path d="M221.162 352.06V346.086L203.096 335.91V343.819L221.162 352.06Z" fill="#8CBF00"/>
<path d="M210.854 363.121L220.331 353.553L202.708 344.98L195.559 351.064L199.66 360.964L210.854 363.121Z" fill="#8CBF00"/>
<path d="M201.654 343.874V335.966L186.857 343.1L194.561 350.013L201.654 343.874Z" fill="#8CBF00"/>
<path d="M194.116 351.119L186.912 344.98V360.024L197.552 360.466L194.116 351.119Z" fill="#8CBF00"/>
<path d="M199.604 378.717L187.301 361.462L197.941 361.959L203.76 374.348L199.604 378.717Z" fill="#8CBF00"/>
<path d="M199.604 362.402L210.189 364.172L219.555 378.717L205.423 374.348L199.604 362.402Z" fill="#8CBF00"/>
<path d="M221.716 353.885L211.852 364.172L221.716 379.823L231.525 364.172L221.716 353.885Z" fill="#8CBF00"/>
<path d="M204.703 375.344L220.94 380.487V390.995L200.657 379.547L204.703 375.344Z" fill="#8CBF00"/>
</svg>
