<svg width="582" height="880" viewBox="0 0 582 880" fill="none" xmlns="http://www.w3.org/2000/svg">
<g filter="url(#filter0_f_539_2148)">
<circle cx="322.422" cy="149.189" r="74.1891" fill="#C24BED"/>
</g>
<g filter="url(#filter1_f_539_2148)">
<circle cx="322.422" cy="250.213" r="74.1891" fill="#3D70F5"/>
</g>
<g filter="url(#filter2_f_539_2148)">
<ellipse cx="322.852" cy="464.054" rx="194.681" ry="74.1891" fill="#8CBF00"/>
</g>
<g filter="url(#filter3_f_539_2148)">
<ellipse cx="324" cy="371.897" rx="213" ry="81.1703" fill="#00B5DC"/>
</g>
<g filter="url(#filter4_f_539_2148)">
<ellipse cx="324.166" cy="575.451" rx="195.929" ry="74.1197" fill="#FFD800"/>
</g>
<g filter="url(#filter5_f_539_2148)">
<ellipse cx="328.763" cy="640.378" rx="200.525" ry="73.5451" fill="#EC5F4E"/>
</g>
<g filter="url(#filter6_f_539_2148)">
<ellipse cx="328.622" cy="719.898" rx="160.164" ry="66.4208" fill="#EF0967"/>
</g>
<path d="M426.462 694.037C427.261 702.854 427.261 751.75 424.863 769.384C422.466 787.018 409.679 838.318 408.88 841.525C408.241 844.09 407.548 882.137 407.282 900.84C408.081 917.406 409.839 951.98 410.478 957.751C411.278 964.966 413.675 1012.26 410.478 1032.3C407.921 1048.33 396.626 1106.84 391.299 1134.1V1170.97C394.762 1178.98 402.966 1195.17 408.081 1195.82C414.474 1196.62 409.679 1208.64 402.487 1207.04C395.294 1205.43 359.332 1215.05 353.738 1195.82C356.136 1173.37 350.541 1156.54 352.14 1152.53C353.738 1148.52 359.332 1145.32 361.73 1130.09C364.127 1114.86 355.336 1043.52 353.738 1033.9C352.14 1024.28 353.738 982.6 357.734 957.751C355.816 939.155 348.41 909.925 344.947 897.634L342.55 875.992L339.353 855.953V769.384C338.554 765.643 335.997 753.994 332.161 737.321C328.325 720.649 327.366 707.396 327.366 702.854L426.462 694.037Z" fill="white"/>
<path d="M459.227 360.587C457.629 330.127 436.052 322.913 434.453 321.31L327.366 420.303V702.854L426.462 694.037C425.663 685.22 420.868 616.285 420.068 609.071C419.269 601.857 404.085 570.596 401.688 550.557C399.29 530.518 401.688 493.646 401.688 488.837C401.688 484.028 403.286 429.521 413.675 437.537C413.675 447.957 430.458 493.646 430.458 511.281C430.458 528.915 444.842 568.993 447.24 574.604C449.158 579.093 468.285 623.499 477.608 645.142C479.206 650.485 481.604 662.455 478.407 667.585C474.411 673.998 477.608 686.823 477.608 690.831C477.608 694.839 480.006 716.481 484.001 716.481C487.198 716.481 486.399 704.725 485.6 698.846C486.932 698.312 489.595 697.564 489.595 698.846C489.595 700.129 494.39 710.068 496.788 714.878C497.054 725.565 498.067 747.742 499.985 750.948C501.903 754.154 504.513 753.353 505.579 752.551C505.312 758.429 505.898 769.544 510.374 766.979C515.968 763.773 512.771 702.854 510.374 696.442C507.976 690.029 500.784 638.729 499.185 633.92C497.587 629.11 488.796 571.398 487.997 564.184C487.198 556.97 481.604 512.082 469.616 493.646C467.219 472.004 457.629 422.307 457.629 415.093C457.629 407.879 460.826 391.046 459.227 360.587Z" fill="white"/>
<path d="M375.315 221.916C376.115 221.115 382.508 186.648 369.721 201.075C371.387 173.671 364.443 157.413 355.336 148.241L331.129 158.554L327.366 160.158V420.303L434.453 321.31C432.855 319.707 412.876 315.699 397.692 315.699C374.516 313.295 356.935 291.652 355.336 289.248C353.738 286.843 354.537 255.582 355.336 254.78C356.136 253.979 363.328 238.749 364.926 233.138C368.123 231.535 374.516 222.718 375.315 221.916Z" fill="white"/>
<path d="M327.366 137.714C334.381 137.33 346.97 139.815 355.336 148.241L327.366 137.714Z" fill="white"/>
<path d="M355.336 148.241L327.366 137.714L331.129 158.554L355.336 148.241Z" fill="white"/>
<path d="M327.366 160.158L331.129 158.554L327.366 137.714V160.158Z" fill="white"/>
<path d="M228.981 694.037C228.182 702.854 228.182 751.75 230.58 769.384C232.977 787.018 245.764 838.318 246.563 841.525C247.202 844.09 247.895 882.137 248.161 900.84C247.362 917.406 245.604 951.98 244.965 957.751C244.166 964.966 241.768 1012.26 244.965 1032.3C247.522 1048.33 258.817 1106.84 264.145 1134.1V1170.97C260.682 1178.98 252.477 1195.17 247.362 1195.82C240.969 1196.62 245.764 1208.64 252.956 1207.04C260.149 1205.43 296.111 1215.05 301.705 1195.82C299.308 1173.37 304.902 1156.54 303.303 1152.53C301.705 1148.52 296.111 1145.32 293.714 1130.09C291.316 1114.86 300.107 1043.52 301.705 1033.9C303.303 1024.28 301.705 982.6 297.709 957.751C299.627 939.155 307.033 909.925 310.496 897.634L312.893 875.992L316.09 855.953V769.384C316.889 765.643 319.447 753.994 323.282 737.321C327.118 720.649 328.077 707.396 328.077 702.854L228.981 694.037Z" fill="white"/>
<path d="M196.216 360.587C197.814 330.127 219.392 322.913 220.99 321.31L328.077 420.303V702.854L228.981 694.037C229.781 685.22 234.576 616.285 235.375 609.071C236.174 601.857 251.358 570.596 253.755 550.557C256.153 530.518 253.755 493.646 253.755 488.837C253.755 484.028 252.157 429.521 241.768 437.537C241.768 447.957 224.986 493.646 224.986 511.281C224.986 528.915 210.601 568.993 208.203 574.604C206.285 579.093 187.159 623.499 177.835 645.142C176.237 650.485 173.839 662.455 177.036 667.585C181.032 673.998 177.835 686.823 177.835 690.831C177.835 694.839 175.438 716.481 171.442 716.481C168.245 716.481 169.044 704.725 169.843 698.846C168.512 698.312 165.848 697.564 165.848 698.846C165.848 700.129 161.053 710.068 158.655 714.878C158.389 725.565 157.377 747.742 155.459 750.948C153.541 754.154 150.93 753.353 149.864 752.551C150.131 758.429 149.545 769.544 145.069 766.979C139.475 763.773 142.672 702.854 145.069 696.442C147.467 690.029 154.659 638.729 156.258 633.92C157.856 629.11 166.647 571.398 167.446 564.184C168.245 556.97 173.839 512.082 185.827 493.646C188.224 472.004 197.814 422.307 197.814 415.093C197.814 407.879 194.617 391.046 196.216 360.587Z" fill="white"/>
<path d="M280.128 221.916C279.329 221.115 272.935 186.648 285.722 201.075C284.056 173.671 291 157.413 300.107 148.241L324.314 158.554L328.077 160.158V420.303L220.99 321.31C222.588 319.707 242.567 315.699 257.751 315.699C280.927 313.295 298.508 291.652 300.107 289.248C301.705 286.843 300.906 255.582 300.107 254.78C299.308 253.979 292.115 238.749 290.517 233.138C287.32 231.535 280.927 222.718 280.128 221.916Z" fill="white"/>
<path d="M328.077 137.714C321.062 137.33 308.473 139.815 300.107 148.241L328.077 137.714Z" fill="white"/>
<path d="M300.107 148.241L328.077 137.714L324.314 158.554L300.107 148.241Z" fill="white"/>
<path d="M328.077 160.158L324.314 158.554L328.077 137.714V160.158Z" fill="white"/>
<path d="M315.683 500.855L326.555 488L343.267 500.855L352.97 517.93L336.259 537.596H315.683L303.374 520.233L315.683 500.855Z" fill="#FFD800"/>
<path d="M316.616 313.693L326.78 306L338.832 316.148L343.24 323.596L346.658 335.544L341.531 346.756L329.208 354.695L313.468 341.682L311.489 328.915L316.616 313.693Z" fill="#00B5DC"/>
<path d="M324.249 233.549L331.689 229L339.94 235.721L341.022 239.048L345.756 249.095L344.471 258.057L341.022 263.692L328.442 270.481L314.375 260.637L313.293 246.516L324.249 233.549Z" fill="#3D70F5"/>
<path d="M321.96 598.461L329.956 591L344.97 614.657L346.658 628.578L344.97 634.492L337.951 639.769L328.978 641.498L321.96 639.769L311.921 627.213L310.588 621.299L321.96 598.461Z" fill="#EC5F4E"/>
<path d="M318.36 146.899L328.778 138L341.016 149.45L345.756 159.951L336.771 184.571L328.778 192.105L319.904 183.147L310.588 159.951L312.848 154.671L318.36 146.899Z" fill="#C24BED"/>
<path d="M313 705.033L328.6 688H334.8L348.5 704.025L350 717.934L335.7 747.162L323.8 752L316.7 745.953L311 712.995L313 705.033Z" fill="#EF0967"/>
<path d="M328.035 405.952V400.422L344.762 391V398.322L328.035 405.952Z" fill="#8CBF00"/>
<path d="M337.63 416.193L328.805 407.334L345.121 399.398L351.791 405.081L347.994 414.247L337.63 416.193Z" fill="#8CBF00"/>
<path d="M346.096 398.374V391.051L359.846 397.657L352.715 404.057L346.096 398.374Z" fill="#8CBF00"/>
<path d="M353.177 405.081L359.899 399.398V413.325L349.996 413.735L353.177 405.081Z" fill="#8CBF00"/>
<path d="M347.996 430.633L359.437 414.657L349.535 415.117L344.147 426.587L347.996 430.633Z" fill="#8CBF00"/>
<path d="M347.995 415.527L338.144 417.166L329.473 430.633L342.608 426.587L347.995 415.527Z" fill="#8CBF00"/>
<path d="M343.274 427.509L328.189 432.271V442L347.02 431.401L343.274 427.509Z" fill="#8CBF00"/>
<path d="M327.062 405.952V400.422L310.335 391V398.322L327.062 405.952Z" fill="#8CBF00"/>
<path d="M317.518 416.193L326.291 407.334L309.975 399.398L303.356 405.03L307.153 414.196L317.518 416.193Z" fill="#8CBF00"/>
<path d="M309 398.374V391.051L295.301 397.657L302.433 404.057L309 398.374Z" fill="#8CBF00"/>
<path d="M302.022 405.081L295.352 399.398V413.325L305.203 413.735L302.022 405.081Z" fill="#8CBF00"/>
<path d="M307.101 430.633L295.711 414.657L305.562 415.117L310.95 426.587L307.101 430.633Z" fill="#8CBF00"/>
<path d="M307.103 415.527L316.903 417.166L325.574 430.633L312.49 426.587L307.103 415.527Z" fill="#8CBF00"/>
<path d="M327.574 407.642L318.441 417.166L327.574 431.657L336.656 417.166L327.574 407.642Z" fill="#8CBF00"/>
<path d="M311.823 427.509L326.856 432.271V442L308.077 431.401L311.823 427.509Z" fill="#8CBF00"/>
<defs>
<filter id="filter0_f_539_2148" x="137.915" y="-35.3176" width="369.013" height="369.014" filterUnits="userSpaceOnUse" color-interpolation-filters="sRGB">
<feFlood flood-opacity="0" result="BackgroundImageFix"/>
<feBlend mode="normal" in="SourceGraphic" in2="BackgroundImageFix" result="shape"/>
<feGaussianBlur stdDeviation="55.1588" result="effect1_foregroundBlur_539_2148"/>
</filter>
<filter id="filter1_f_539_2148" x="137.915" y="65.7058" width="369.013" height="369.014" filterUnits="userSpaceOnUse" color-interpolation-filters="sRGB">
<feFlood flood-opacity="0" result="BackgroundImageFix"/>
<feBlend mode="normal" in="SourceGraphic" in2="BackgroundImageFix" result="shape"/>
<feGaussianBlur stdDeviation="55.1588" result="effect1_foregroundBlur_539_2148"/>
</filter>
<filter id="filter2_f_539_2148" x="17.8533" y="279.547" width="609.997" height="369.013" filterUnits="userSpaceOnUse" color-interpolation-filters="sRGB">
<feFlood flood-opacity="0" result="BackgroundImageFix"/>
<feBlend mode="normal" in="SourceGraphic" in2="BackgroundImageFix" result="shape"/>
<feGaussianBlur stdDeviation="55.1588" result="effect1_foregroundBlur_539_2148"/>
</filter>
<filter id="filter3_f_539_2148" x="0.682358" y="180.41" width="646.635" height="382.976" filterUnits="userSpaceOnUse" color-interpolation-filters="sRGB">
<feFlood flood-opacity="0" result="BackgroundImageFix"/>
<feBlend mode="normal" in="SourceGraphic" in2="BackgroundImageFix" result="shape"/>
<feGaussianBlur stdDeviation="55.1588" result="effect1_foregroundBlur_539_2148"/>
</filter>
<filter id="filter4_f_539_2148" x="17.9197" y="391.014" width="612.493" height="368.875" filterUnits="userSpaceOnUse" color-interpolation-filters="sRGB">
<feFlood flood-opacity="0" result="BackgroundImageFix"/>
<feBlend mode="normal" in="SourceGraphic" in2="BackgroundImageFix" result="shape"/>
<feGaussianBlur stdDeviation="55.1588" result="effect1_foregroundBlur_539_2148"/>
</filter>
<filter id="filter5_f_539_2148" x="17.9197" y="456.515" width="621.686" height="367.725" filterUnits="userSpaceOnUse" color-interpolation-filters="sRGB">
<feFlood flood-opacity="0" result="BackgroundImageFix"/>
<feBlend mode="normal" in="SourceGraphic" in2="BackgroundImageFix" result="shape"/>
<feGaussianBlur stdDeviation="55.1588" result="effect1_foregroundBlur_539_2148"/>
</filter>
<filter id="filter6_f_539_2148" x="58.1413" y="543.16" width="540.962" height="353.477" filterUnits="userSpaceOnUse" color-interpolation-filters="sRGB">
<feFlood flood-opacity="0" result="BackgroundImageFix"/>
<feBlend mode="normal" in="SourceGraphic" in2="BackgroundImageFix" result="shape"/>
<feGaussianBlur stdDeviation="55.1588" result="effect1_foregroundBlur_539_2148"/>
</filter>
</defs>
</svg>
